
<svg xmlns="http://www.w3.org/2000/svg" version="1.1" xmlns:xlink="http://www.w3.org/1999/xlink" preserveAspectRatio="none" x="0px" y="0px" width="960px" height="550px" viewBox="0 0 960 550">
<defs>
<radialGradient id="Gradient_1" gradientUnits="userSpaceOnUse" cx="0" cy="0" r="50.3875" fx="0" fy="0" gradientTransform="matrix( 1, 0, 0, 0.3393698834036219, 61.05,18.25) " spreadMethod="pad">
<stop  offset="0%" stop-color="#000000" stop-opacity="0.5215686274509804"/>

<stop  offset="100%" stop-color="#000000" stop-opacity="0"/>
</radialGradient>

<g id="Symbol_4_0_Layer0_0_FILL">
<path fill="url(#Gradient_1)" stroke="none" d="
M 122.1 18.25
Q 122.1 10.7 104.2 5.3 86.3 0 61.05 0 35.7 0 17.85 5.3 0 10.7 0 18.25 0 25.75 17.85 31.05 35.7 36.5 61.05 36.5 86.3 36.5 104.2 31.05 122.1 25.75 122.1 18.25 Z"/>
</g>

<g id="Symbol_5_0_Layer1_0_FILL">
<path fill="#BF9642" stroke="none" d="
M 4.9 20.95
Q 4.45 20.95 4.2 21.35
L 3.45 22.75 3.45 23.8
Q 4.5 25.6 5.95 25.05
L 6.75 25.05
Q 7.4 25.2 8.05 24.5 8.65 23.9 8 21.35 7.35 18.8 8.7 21.4
L 10.1 24 9.25 21.4
Q 8.6 20 6.9 18.45
L 6.9 21.5 4.9 20.95
M 3.4 16.9
L 3.25 17 2.7 18.25 2.3 19.35 0.95 19.05 0.4 19.6 -0.5 19.65 -1.55 19.4
Q -1.3 20.35 -1.35 21.9 -0.7 23.55 0.25 23.65 1.45 23.65 2.35 22.6 3.2 21.5 3.2 19.95 3.2 19.8 3.65 19.8
L 3.6 21.5 3.75 20.15 3.75 18.9 3.4 16.9
M 10.3 5.6
Q 11.1 5.25 10.75 3.65 9.1 1.1 8.35 1.1 6.55 1.1 5.75 2 5.2 2.65 5.2 3.45
L 5.3 4.2 5.1 4.85 5.05 5.05 4.75 5.85
Q 7.05 6.1 8.05 8.8 9 11.5 9.5 15.25 10.3 17.25 12.7 18.85
L 15.05 20.55
Q 14.65 19.55 13.75 18.95 12.15 17.9 11.95 17.25
L 11.3 15.5 10.15 11.6
Q 9.35 8.75 9.35 7.55
L 9.6 6.15 10.3 5.6 Z"/>

<path fill="#FFD45B" stroke="none" d="
M 3.25 7.1
L 2.95 7.25
Q 2.55 7.05 2.2 8.05
L 2.15 8.2 2 8.55 1.75 9.95 1.7 10.2 1.35 12.15 1 13.95 0.4 15.65
Q -0.05 16.6 -1.05 17.75 -1.65 18.4 -1.65 19.25
L -1.6 19.35 -1.55 19.4 -0.5 19.65 0.4 19.6 0.95 19.05 2.3 19.35 2.7 18.25 3.25 17 3.4 16.9 3.75 18.9 3.75 20.15 3.6 21.5 3.55 21.8 3.45 22.75 4.2 21.35
Q 4.45 20.95 4.9 20.95
L 6.9 21.5 6.9 18.45
Q 8.6 20 9.25 21.4
L 10.1 24 10.25 24.3 11.9 24.7 14.4 24.55
Q 15.4 24.2 15.35 22.1
L 15.05 20.55 12.7 18.85
Q 10.3 17.25 9.5 15.25 9 11.5 8.05 8.8 7.05 6.1 4.75 5.85 4.2 6.7 3.25 7.1 Z"/>
</g>

<g id="Symbol_5_0_Layer0_0_FILL">
<path fill="#333333" stroke="none" d="
M 15 23.25
L 14.15 21.35
Q 13.7 20.4 12.25 20.5 10.8 20.6 10.6 22.15 10.35 23.6 11.65 24.85 12.95 26.1 14.45 26.05 15.95 26 16.8 25.15
L 17.6 23.9 16.7 24.3 15.9 24.3
Q 15.4 24.15 15 23.25
M 1.05 23.55
L 1.55 22.6 1.8 21.85
Q 1.8 20.5 0.25 20.25 -1.35 20 -1.35 22.45 -1.35 26.05 1.4 26.05 1.75 26.05 1.6 25.9 1 25 0.9 24.5 0.8 24 1.05 23.55
M 7.3 22.35
L 4.3 22.2
Q 3.4 23.85 4.35 25.4
L 6.1 27.5 6.45 27.75 7.3 28.15 8 28.25 9.2 27.35 8.85 27.35
Q 7.45 27.2 7.45 25.95
L 7.4 22.9 7.3 22.35
M 11.7 0.7
L 12.1 0.6 11.55 0.1 8.65 0.05 7.7 0.75 7.65 1.3
Q 10 2.05 10.15 3.35
L 10.15 2.8 10.1 2.3
Q 10.05 0.6 11.7 0.7 Z"/>
</g>

<g id="Symbol_7_0_Layer1_0_FILL">
<path fill="#FFD45B" stroke="none" d="
M 7.6 6.1
L 5.65 3.45 4.65 2.15 3.25 0.7 1.7 -0.25 -1.85 1.65
Q -2.4 2.15 -2.4 2.65 -2.4 3.55 -1.2 5.1 -2.3 3.6 -2.3 2.75 -2.3 2.25 -1.75 1.75
L 1.8 -0.15
Q 2.45 0.05 3.25 0.7
L 4.65 2.15 5.65 3.45 7.6 6.1 7.75 6.25 8.1 6.7 8.25 6.85 7.8 7.55 8.45 8.9
Q 10.1 12 12.85 13.55
L 13 13.85 13.35 15 12.6 15.9 11.85 16.25 12.35 16.25
Q 13 16.25 13.5 15.45
L 13.9 14.25 13.85 14 14.95 14.4 15.25 15.05 15.4 15.75
Q 15.4 16.25 14.85 16.95 14.1 17.8 13.2 17.5
L 13.2 17.65 13.35 17.8 14.45 17.8 15.65 16.65 15.9 15.5 15.8 14.75 15.7 14.6 16.9 14.85 16.85 14.8 16.7 14.7 16.55 14.55 16.3 14.35 15.95 14.3
Q 14.75 14.15 13.55 13.05
L 13.1 12.65 12.85 12.35 8.25 6.9 12.85 12.35 13.1 12.65 13.55 13.05
Q 14.7 14.05 15.85 14.2
L 16.2 14.25 16.55 14.55 16.7 14.7 16.85 14.8 16.9 14.85 16.95 14.9 16.95 14.95 17 14.95 17.15 15.2 17.35 15.4 17.45 15.5
Q 18 16.35 18 17.4 18 18.05 17.3 18.8 16.55 19.6 15.8 19.6
L 13.3 18.85 12.75 18.15 13.2 18.75 13.3 18.8 13.2 18.75 12.75 18.15 11.45 16.9 11.05 16.55 5.5 11.75 4.65 11.05 0.55 7.15 0.45 7.05 -1.2 5.1
Q -2.4 3.55 -2.4 2.65 -2.4 2.15 -1.85 1.65
L 1.7 -0.25 3.25 0.7
Q 2.45 0.05 1.8 -0.15
L -1.75 1.75
Q -2.3 2.25 -2.3 2.75 -2.3 3.6 -1.2 5.1
L 0.45 7.05 0.55 7.15 4.65 11.05 5.5 11.75 11.05 16.55 11.45 16.9 12.75 18.15 13.3 18.85 15.8 19.6
Q 16.55 19.6 17.3 18.8 18 18.05 18 17.4 18 16.35 17.45 15.5
L 17.35 15.4 17.15 15.2 17 14.95 16.95 14.95 16.95 14.9 16.9 14.85 15.7 14.6 15.8 14.75 15.9 15.5 15.65 16.65 14.45 17.8 13.35 17.8 13.2 17.65 13.2 17.5
Q 14.1 17.8 14.85 16.95 15.4 16.25 15.4 15.75
L 15.25 15.05 14.95 14.4 13.85 14 13.9 14.25 13.5 15.45
Q 13 16.25 12.35 16.25
L 11.85 16.25 12.6 15.9 13.35 15 13 13.85 12.85 13.55
Q 10.1 12 8.45 8.9
L 7.8 7.55 8.25 6.85 8.1 6.7 7.75 6.25 7.6 6.1 Z"/>

<path fill="#FFD200" stroke="none" d="
M 15.95 14.3
L 16.3 14.35 16.55 14.55 16.2 14.25 15.85 14.2
Q 14.7 14.05 13.55 13.05 14.75 14.15 15.95 14.3 Z"/>
</g>

<g id="Symbol_7_0_Layer0_0_FILL">
<path fill="#192838" stroke="none" d="
M 6.45 -0.65
Q 5.75 -1.55 5.6 -2.5
L 5.2 -2.65 3.65 -2.9
Q -1.35 -3.6 -5.75 -1.55
L -6.3 -1.3 -8 -0.35 -8.2 -0.3 -5.65 3.1 -4.65 4.35 -1.05 8.6
Q 0.75 10.5 3.35 11.75
L 6.6 13.25 6.9 13.4 8 13.95 6.9 13.4 6.6 13.25 6.6 13.3
Q 6.5 14 6.55 14.9 6.55 16.4 6.9 16.6 6.9 16 7.55 15.3
L 8.3 14.7 9.3 14.9 10.55 15.4 11 15.55 10.95 15.4 10.45 12.95
Q 10.45 12.65 11.95 12.35
L 14.2 12.15 14.3 12.1
Q 12.75 11.3 11.25 11.4
L 13.35 11.2 15.85 11.05 14.9 10.35 13.9 9.8 14 9.8 18.05 8.3 14.5 7.9 11.25 8.1 12.1 6.7 12.4 6.1 12.2 6.25 12 6.5 10.9 7.45 10.25 8.1 10.2 8.1 10.15 8 10.05 7.8 9.9 7.45 9.85 7.35 9.65 6.95 9.45 6.4
Q 9.35 5.3 9.55 4.5
L 10.1 3.1 10.35 2.7 10.85 2.1 10.75 1.75
Q 7.8 1.15 6.45 -0.65 Z"/>
</g>

<g id="Symbol_9_0_Layer1_0_FILL">
<path fill="#505870" stroke="none" d="
M 25.25 2.4
L 24.55 1.55 23.2 0.2 19.6 0
Q 11.95 0 7.05 3 2.4 5.85 0.2 8.4
L 0 8.6
Q 2.4 11.2 7.05 14.05 11.95 17 19.6 17
L 23.8 16.75
Q 25.45 15.6 26.45 14.25 23.4 15.35 19.4 15.35 15.5 15.35 12.5 14.4 10.7 13.85 9.25 12.95 5.55 10.65 3.6 8.55
L 3.75 8.4
Q 5.55 6.35 9.25 4.05 10.55 3.25 12.15 2.75 15.25 1.65 19.4 1.65 22.65 1.65 25.25 2.4 Z"/>

<path fill="#192838" stroke="none" d="
M 25.15 8.35
L 24.95 8.05
Q 20.15 1.55 12.15 2.75 10.55 3.25 9.25 4.05 5.55 6.35 3.75 8.4
L 3.6 8.55
Q 5.55 10.65 9.25 12.95 10.7 13.85 12.5 14.4 16.5 15.1 20.25 13.55 23.95 12.1 25.15 8.35
M 37.05 8.75
Q 37.25 8.4 37.05 8.3 35.3 5.45 32 3.25 28.4 0.8 23.2 0.2
L 24.55 1.55 25.25 2.4
Q 27.55 3.05 29.35 4.25 32.05 6.05 33.45 8.35
L 33.45 8.65
Q 32.05 10.95 29.35 12.75
L 26.45 14.25
Q 25.45 15.6 23.8 16.75 28.6 16.1 32 13.8 35.3 11.55 37.05 8.75 Z"/>

<path fill="#010407" stroke="none" d="
M 33.45 8.65
L 33.45 8.35
Q 32.05 6.05 29.35 4.25 27.55 3.05 25.25 2.4 22.65 1.65 19.4 1.65 15.25 1.65 12.15 2.75 20.15 1.55 24.95 8.05
L 25.15 8.35
Q 23.95 12.1 20.25 13.55 16.5 15.1 12.5 14.4 15.5 15.35 19.4 15.35 23.4 15.35 26.45 14.25
L 29.35 12.75
Q 32.05 10.95 33.45 8.65 Z"/>
</g>

<g id="Symbol_9_0_Layer0_0_FILL">
<path fill="#010407" stroke="none" d="
M 30.7 8.5
L 27.35 7.85 19.25 7.4 10.95 7.8 6.5 8.5 6.35 8.5 10.95 9.2 19.25 9.6 27.35 9.15 30.7 8.55 30.7 8.5 Z"/>
</g>

<g id="Symbol_11_0_Layer1_0_FILL">
<path fill="#192838" stroke="none" d="
M -1.2 12
Q -3.2 13.05 -11.3 14.2 -6.7 14.75 -2.85 16.75
L 2.6 13.75
Q 1.8 12.75 -1.2 12
M 4.4 20
Q 5.35 17.15 3.95 14.9
L -1.35 17.85
Q 0 22.9 -2 27.6
L 4.4 20 Z"/>
</g>

<g id="Symbol_11_0_Layer0_0_FILL">
<path fill="#192838" stroke="none" d="
M 6.95 -10
L 7.2 -8.9 7.85 -5.25 8.15 -1.85 8 1.5 7.6 4.7 7.5 5.1
Q 5.9 11.5 -2.8 16.6 -4.95 17.9 -7.35 18.65
L -6.95 19.25 -6.85 19.65 -6.45 19.95 -5.15 21.3 -1.25 19
Q 3.65 16.55 7 12.45 9.95 8.8 10.95 4.7
L 11.25 2.6 11.35 -0.75 10.85 -4.25 10.2 -7.05 9.55 -9.8 9.45 -10.05 9 -10.05 6.8 -10.45 6.95 -10 Z"/>

<path fill="#010407" stroke="none" d="
M -4.15 -27.6
L -5.5 -27 -1.45 -23.35 0.1 -21.6 1.45 -19.95 2.75 -18.25 3.8 -16.55 5.6 -13.2 6.8 -10.45 9 -10.05 9.45 -10.05 9.15 -10.75 8.6 -11.75 7.9 -13.15 7.45 -13.85 6.95 -14.8 6.4 -15.7 5.75 -16.75 5 -17.8 4.1 -19.05 3.1 -20.25 0.7 -23 -4.15 -27.6 Z"/>
</g>

<g id="Symbol_13_0_Layer1_0_FILL">
<path fill="#192838" stroke="none" d="
M 9.85 19.75
Q 8.6 19.45 5.8 20.65 4.85 22.7 -0.9 28.55 3.05 26.2 7.35 25.45
L 9.85 19.75
M 15.05 23.6
Q 14.15 20.75 11.6 19.8
L 9.2 25.4
Q 13.4 28.6 14.65 33.55
L 15.05 23.6 Z"/>
</g>

<g id="Symbol_13_0_Layer0_0_FILL">
<path fill="#192838" stroke="none" d="
M 7.15 -13.05
L 4.7 -12.8 2.4 -13.05
Q 6.5 -6.35 8.35 1.65
L 8.45 2.1 9.05 5.4
Q 9.9 10.1 9.5 15.05 9.1 20 7.55 24.45
L 5.2 31.25 5 31.75 5.45 31.9
Q 7.45 32.65 9.05 33.45
L 9.75 31.25 10.95 27.3
Q 12.1 23.7 12.65 19.9 13.3 15.8 13.4 11.6 13.5 6.85 12.35 2.1 10.15 -7.8 7.15 -13.05 Z"/>

<path fill="#010407" stroke="none" d="
M 4.7 -12.8
L 7.15 -13.05
Q 3.3 -19.75 -3.35 -25.85 -8.5 -30.65 -14.7 -33.5
L -15.05 -32.7
Q -15.1 -32.3 -14.55 -31.15
L -14.1 -30.15 -12.4 -28.5
Q -3.05 -21.9 2.4 -13.05
L 4.7 -12.8 Z"/>
</g>

<g id="Symbol_15_0_Layer1_0_FILL">
<path fill="#192838" stroke="none" d="
M 18.2 16.85
Q 17 17.3 15.4 19.95 15.8 22.2 14.55 30.3 16.45 26.05 19.45 22.95
L 18.2 16.85
M 24.7 16.95
Q 22.25 15.2 19.65 15.9
L 20.95 21.8
Q 26.15 22 30.05 25.3
L 24.7 16.95 Z"/>
</g>

<g id="Symbol_15_0_Layer0_0_FILL">
<path fill="#010407" stroke="none" d="
M 3.25 -7
L 9.3 -5.65
Q 6.3 -9.45 1.85 -14
L -2.35 -17.5 -9.75 -23.2 -13.65 -25.85 -15.6 -27.2
Q -18.45 -29.1 -21.6 -30.65
L -23.5 -31.3 -24.4 -31.1 -24.45 -30.1
Q -24.1 -29 -23.35 -28.05 -21.3 -25.85 -18.9 -24.5 -14.3 -21.8 -9.85 -18.8 -6.7 -16.75 -3.8 -14.15 -0.05 -10.85 3.25 -7 Z"/>

<path fill="#192838" stroke="none" d="
M 9.3 -5.65
L 3.25 -7 3.85 -6.3 8.35 -0.45
Q 12.75 6 15.75 13.2 18.7 20.25 19.05 28.1
L 19.2 30.95 19.2 31.25 19.1 31.35 24.5 31.35 24.45 31.25 23.7 25.2
Q 22.6 17.55 19.05 10.4 15.2 2.75 11.75 -2.35
L 9.3 -5.65 Z"/>
</g>

<g id="Symbol_17_0_Layer1_0_FILL">
<path fill="#192838" stroke="none" d="
M 48.65 37.35
Q 47.9 38.35 47.8 41.45 49.3 43.15 52.25 50.8 51.75 46.15 52.85 41.95
L 48.65 37.35
M 54.35 34.2
Q 51.4 33.9 49.5 35.8
L 53.55 40.3
Q 58.2 37.85 63.2 38.75
L 54.35 34.2 Z"/>
</g>

<g id="Symbol_17_0_Layer0_0_FILL">
<path fill="#010407" stroke="none" d="
M 24.8 14.1
Q 12.8 5.35 4.8 1.4 -3.15 -2.6 -2.25 -0.55 -1.35 1.45 -1.05 1.65
L -0.45 1.85 1.95 2.75
Q 4.1 3.65 11.5 7.75 18.95 11.85 32.45 23.2
L 35.05 25.45
Q 39.25 27 43.55 29.05 35.05 21.55 24.8 14.1 Z"/>

<path fill="#192838" stroke="none" d="
M 58.45 44.65
Q 54.5 39.3 47.35 32.55
L 43.55 29.05
Q 39.25 27 35.05 25.45 46.75 35.55 54.25 44.65
L 55 45.95 57.35 45 58.45 44.65 Z"/>
</g>

<g id="Symbol_19_0_Layer0_0_FILL">
<path fill="#FFF4CC" stroke="none" d="
M 30.15 16.25
L 24.45 15.5 21.3 14.9
Q 13.85 14.1 8.4 12
L 7.35 11.75 6.85 11.75
Q 7.3 12.4 9.45 13.7
L 12.35 15.35 11.75 15.35 11.95 15.45
Q 11.5 15.7 7.3 14.55
L 5.8 14.15
Q 9.7 16.25 12.25 17.2 14.75 18.15 19.6 18.8
L 19.8 18.6 14.65 16.3 19.8 17.6 20.4 17.7
Q 25.5 18.35 30.8 17.55
L 33.5 17 33.45 16.85 31.25 16.35 30.15 16.25
M 43.45 9.8
L 45.6 9.2 27.1 8.2 23.2 8.5 16.05 8.65 7.75 8.15 5.8 8 16.7 10.95 25.35 11.8 31.2 11.7 36.45 11.2 39.35 10.65 43.45 9.8 Z"/>

<path fill="#B4A385" stroke="none" d="
M -3.15 5.45
Q -6.8 5.75 -8.5 7.45 -10.65 10.3 -10.15 12.8 -8.65 15.85 -7.15 18.05
L -4.55 21.1 3 28.05 0.35 24.65 -0.5 23.35 0.35 24 4.05 26.3 1.1 21.85 0.25 20.25
Q 4.35 23.2 8.45 22.8
L 10.35 22.8 10.35 22.65 7.2 20.15 6.75 19.75 4.8 18.1
Q 8.25 19.4 11 19.5
L 11.25 19.5 8.75 17.45 8.65 17.35 7.7 16.95 8.65 17.35 11.35 18.4 13.45 19 16.35 19.25 18.3 19.25 19.6 18.8
Q 14.75 18.15 12.25 17.2 9.7 16.25 5.8 14.15
L 7.3 14.55
Q 11.5 15.7 11.95 15.45
L 11.75 15.35 12.35 15.35 9.45 13.7
Q 7.3 12.4 6.85 11.75
L 7.35 11.75 8.4 12
Q 13.85 14.1 21.3 14.9 28.3 14.75 30 12.95
L 26.15 11.95 25.35 11.8 16.7 10.95 5.8 8 7.75 8.15 16.05 8.65 23.2 8.5 27.1 8.2 14.7 7.5 11.05 7 -3.15 5.45 Z"/>

<path fill="#192838" stroke="none" d="
M -6.2 -2.4
L -8.45 -2.3
Q -12.55 -1.6 -13.7 2.35 -15.3 7.9 -12.8 13.3
L -12.65 13.7
Q -7.9 21.2 -0.25 26.2
L 3 28.05 -4.55 21.1 -7.15 18.05
Q -8.65 15.85 -10.15 12.8 -10.65 10.3 -8.5 7.45 -6.8 5.75 -3.15 5.45
L 11.05 7 14.7 7.5 27.1 8.2 45.6 9.2
Q 46.1 8.9 45.55 8.75
L 39.4 7.95 31.8 7.2 29.6 6.9 18.8 5 18.75 5 13.5 3.8
Q 8.05 2.65 2.7 0.95 -1.6 -0.5 -5.65 -2.4
L -6.2 -2.4 Z"/>
</g>

<g id="Symbol_22_0_Layer0_0_FILL">
<path fill="#505870" stroke="none" d="
M 4.25 -38.65
L 8.15 -44.4
Q 6.1 -43.25 4.45 -41.5 0.75 -37.5 -1.15 -32.45 -2.15 -29.9 -2.25 -27.1 -2.35 -23.6 -3.45 -20
L -4.95 -15.75
Q -5.8 -13.75 -6.95 -11.85
L -8.75 -8.9
Q -9.6 -7.6 -9.95 -6.2
L -9.1 -7.5
Q -3.4 -15.6 -2.65 -17.55 -2.1 -19.05 -0.35 -27.7 0.8 -33.6 4.25 -38.65 Z"/>

<path fill="#192838" stroke="none" d="
M 32.55 -62.25
L 32.35 -63.6
Q 32.05 -63.7 31.35 -63.2
L 28.45 -58.9 26 -55.5 23.9 -53.15
Q 22.85 -52.25 21.65 -51.5
L 20.25 -50.55 16.5 -48.05 11.15 -44.1
Q 8.3 -42 6.05 -39.15
L 8.4 -44.55 8.15 -44.4 4.25 -38.65
Q 0.8 -33.6 -0.35 -27.7 -2.1 -19.05 -2.65 -17.55 -3.4 -15.6 -9.1 -7.5
L -9.95 -6.2 -10.05 -5.8 -10.6 -3.3
Q -11.25 -1.25 -10.35 0.45 -3.5 8.9 6.65 5.7 7.85 5.3 8.6 4
L 8.9 3.55
Q 9.05 0.65 9.8 -2.1 10.35 -4.1 11.65 -5.75
L 11.95 -6.1
Q 12.15 -9.1 13.35 -11.15 15.15 -13.55 15.85 -15.05 15.45 -15.25 15.3 -15.45 15 -15.75 14.95 -16.5
L 22.95 -16.8
Q 29.55 -17.25 31.25 -18.65
L 22.2 -20.3 22.2 -20.65 26.9 -22.1
Q 31.4 -23.55 32.15 -23.9
L 32 -23.9 27.6 -24.05 24.35 -24.8 30.95 -26.65
Q 37.4 -28.8 37.95 -30.65
L 26.75 -31.35 26.75 -31.55
Q 27.5 -31.65 32.05 -33.9 36.75 -36.2 37.6 -36.95
L 37.6 -37.9 35.8 -37.9 32.4 -37.45 28 -36.6 24 -36.6 24 -36.95
Q 25.8 -37.8 30.5 -41.3 35.7 -45.2 35.6 -46.2
L 24.75 -42.6 24.75 -42.75
Q 25.8 -43.4 29.7 -47.8 33.6 -52.25 33.6 -52.85
L 33.6 -53.3 29.25 -50.8 25.85 -48.75
Q 28.55 -51.35 30.5 -55.25 32.55 -59.35 32.55 -62.25 Z"/>

<path fill="#010407" stroke="none" d="
M 41.25 -61
L 41.15 -61.15
Q 39.75 -59.75 38 -58.65
L 36.35 -57.65 32.6 -55.4
Q 34.65 -60.05 35.75 -64.95
L 35.95 -66.65
Q 36 -67.3 35.65 -67.65 34.25 -67.55 33.35 -66.2
L 32.1 -64.5 31.35 -63.2
Q 32.05 -63.7 32.35 -63.6
L 32.55 -62.25
Q 32.55 -59.35 30.5 -55.25 28.55 -51.35 25.85 -48.75
L 29.25 -50.8 33.6 -53.3 33.6 -52.85
Q 33.6 -52.25 29.7 -47.8 25.8 -43.4 24.75 -42.75
L 24.75 -42.6 35.6 -46.2
Q 35.7 -45.2 30.5 -41.3 25.8 -37.8 24 -36.95
L 24 -36.6 28 -36.6 32.4 -37.45 35.8 -37.9 37.6 -37.9 37.6 -36.95
Q 36.75 -36.2 32.05 -33.9 27.5 -31.65 26.75 -31.55
L 26.75 -31.35 37.95 -30.65
Q 37.4 -28.8 30.95 -26.65
L 24.35 -24.8 27.6 -24.05 32 -23.9 32.15 -23.9
Q 31.4 -23.55 26.9 -22.1
L 22.2 -20.65 22.2 -20.3 31.25 -18.65
Q 29.55 -17.25 22.95 -16.8
L 14.95 -16.5
Q 15 -15.75 15.3 -15.45 15.45 -15.25 15.85 -15.05 15.15 -13.55 13.35 -11.15 12.15 -9.1 11.95 -6.1
L 12.85 -7.3
Q 15.45 -11 19.35 -13.4 22.65 -12.2 26.4 -11.55 30.95 -11.35 29.5 -12.45
L 27.9 -14.25 27.6 -14.55 27.05 -14.8
Q 31.05 -14.55 34.85 -15.55
L 36 -16.1 36.35 -16.4 36.35 -17.15
Q 35.45 -18.5 34.05 -19.25
L 32.15 -20.4
Q 36.05 -21 39.25 -23.05 39.35 -25 37.25 -25.6
L 35.5 -26.15
Q 39.5 -27.35 42.95 -29.85
L 43.6 -30.4 43.45 -31.5 36.2 -31.75
Q 41.4 -33.35 45.4 -37.1
L 46.85 -38.85
Q 47.3 -39.6 47 -40.6 46.65 -41.3 45.9 -41.45
L 42.8 -41.25 37.85 -40.25 33.25 -39.85 37.4 -42.7 38.55 -43.8
Q 40.5 -45.85 42.15 -48.3
L 42.95 -49.65
Q 43.35 -50.5 42.8 -51.25
L 42.35 -51.75 37.15 -49.65 34.85 -48.8 39 -52.95
Q 41.2 -55.6 41.4 -59
L 41.25 -61 Z"/>
</g>

<g id="Symbol_27_0_Layer1_0_FILL">
<path fill="#000000" stroke="none" d="
M 24.15 34.35
L 25.05 35 27.75 34.6 26.25 33.9 24.15 34.35
M 31.8 32.45
L 34.4 33.65
Q 35.4 33.2 35.7 32.55
L 34.15 32.1 33.6 31.85 31.8 32.45
M 44.65 28.1
Q 43.45 28.15 40.9 27.15 38.7 29.55 36.25 31.05
L 40.95 31.8
Q 43.15 30.4 44.65 28.1
M 46.85 22.65
L 44.8 20.9
Q 44.05 23.05 42.6 25.1
L 41.55 26.4 40.9 27.15
Q 43.45 28.15 44.65 28.1
L 44.8 27.8 45.15 27.2
Q 46.1 25.4 46.85 22.65 Z"/>

<path fill="#333333" stroke="none" d="
M 21.75 34.8
L 20.3 35.95 21.1 36.55
Q 22.1 35.85 23.6 35.4
L 25.05 35 24.15 34.35 21.75 34.8
M 35.7 32.55
Q 38.65 33.6 38.15 33.1 39.65 32.55 40.95 31.8
L 36.25 31.05 34.15 32.1 35.7 32.55
M 34.4 33.65
L 31.8 32.45 27.4 33.6 26.25 33.9 27.75 34.6 28.05 34.6 29.25 34.5
Q 32.75 34.35 34.4 33.65
M 46.85 22.65
L 47.05 21.9 47.6 19.35 45.55 16.7
Q 45.5 18.85 44.8 20.9
L 46.85 22.65 Z"/>

<path fill="#9C1F1F" stroke="none" d="
M 24.7 32.9
L 24.15 32.5 24 32.4 23.75 32.45 22.05 32.8 24.15 34.35 26.25 33.9 24.7 32.9
M 31.8 32.45
L 33.6 31.85 33.45 31.8 32.3 31.2 30.45 30.15 28.5 30.95 31.8 32.45
M 31.6 29.3
L 33.85 30.25 36.25 31.05
Q 38.7 29.55 40.9 27.15 39.1 26.45 36.55 25.2 34.6 27.15 31.6 29.3
M 8.55 34.95
L 8.55 34.85 6.35 35.4
Q 7.8 37.15 9.6 38.65
L 9.45 38.3 9.1 37.35
Q 8.55 35.8 8.55 34.95
M 44.8 20.9
L 41.7 17.45
Q 40.7 19.85 39.2 22.05
L 37.3 24.45 36.55 25.2
Q 39.1 26.45 40.9 27.15
L 41.55 26.4 42.6 25.1
Q 44.05 23.05 44.8 20.9 Z"/>

<path fill="#D94041" stroke="none" d="
M 24.15 32.5
L 24.7 32.9 26.25 33.9 27.4 33.6 31.8 32.45 28.5 30.95 24 32.4 24.15 32.5
M 33.85 30.25
L 31.6 29.3 30.65 29.95 30.45 30.15 32.3 31.2 33.45 31.8 33.6 31.85 34.15 32.1 36.25 31.05 33.85 30.25
M 19.6 33.2
L 18.3 34.6 19.1 35.1 20.3 35.95 21.75 34.8 24.15 34.35 22.05 32.8 19.6 33.2
M 42.95 13.45
L 41.7 17.45 44.8 20.9
Q 45.5 18.85 45.55 16.7
L 42.95 13.45 Z"/>

<path fill="#FFF4CC" stroke="none" d="
M 25.15 29.4
L 23.9 30.3 23.2 31 22.8 31.45 24 32.4 28.5 30.95 25.15 29.4
M 18.1 30.75
L 15.05 30.5
Q 10.65 30.5 8.2 31.15
L 7.1 31.5
Q 5.65 32.1 4.8 33.1
L 5.15 33.75 6.1 35.1 6.15 35.15 6.35 35.4 8.55 34.85
Q 8.55 33.8 8.95 33.1 9.6 31.8 11.45 31.8 13.35 31.8 16.25 33.4 16.8 33.65 17.35 34
L 18.3 34.6 19.6 33.2 22.05 32.8 21.15 32.15 21.05 32.1 19 30.9 18.1 30.75
M 41.7 17.45
L 42.95 13.45 42.8 13.25 41.85 11.9
Q 39 7.9 36.8 5.95
L 36.45 5.65 34.55 4.25 33.05 3.4 31.65 2.8 31.35 2.65 29.25 2.3
Q 28.05 2.15 26.95 3.05
L 26.45 3.5
Q 30.55 3.85 35.9 9.85
L 41.55 17.25 41.7 17.45 Z"/>

<path fill="#192838" stroke="none" d="
M 26.95 3.05
L 26.2 3 26 3 16.95 3.7 15.05 3.6
Q 10.75 3.4 9.3 1.8
L 8.4 1.5 8.35 1.5 5.6 0.45 4.75 0.25
Q 2.05 0.75 0.1 2.15
L -0.65 2.75
Q -2.75 4.45 -3.95 7.3 -6 12 -3.85 16.5
L -2.5 18.2 -0.35 19.75 2.75 23.35 2.85 23.8 2.95 24.05 3.25 24.45 4.4 25.65
Q 8.85 28.8 13.45 26.1 17.55 23.65 19.45 19.3
L 20.9 15.55
Q 23.2 8.6 25.1 5.3
L 26.2 3.75 26.45 3.5 26.95 3.05
M 44.8 27.8
L 44.65 28.1
Q 43.15 30.4 40.95 31.8 39.65 32.55 38.15 33.1 38.65 33.6 35.7 32.55 35.4 33.2 34.4 33.65 32.75 34.35 29.25 34.5
L 28.05 34.6 27.75 34.6 25.05 35 23.6 35.4
Q 22.1 35.85 21.1 36.55
L 20.3 35.95 19.1 35.1 18.3 34.6 17.35 34
Q 16.8 33.65 16.25 33.4 13.35 31.8 11.45 31.8 9.6 31.8 8.95 33.1 8.55 33.8 8.55 34.85
L 8.55 34.95
Q 8.55 35.8 9.1 37.35
L 9.45 38.3 9.6 38.65 9.8 38.8 10.4 39.3 10.65 39.5 12.3 40.35
Q 15.35 41.55 18.6 42.2
L 20.35 42.5 36.8 44.2 38.25 44.6
Q 42.4 45.6 47.45 45.65
L 51.25 45.4
Q 56.2 44.65 60.5 41.9 66.4 38.1 68.4 35.55
L 70.4 32.35 70.45 32.15 70.5 31.65 70.35 31.2 69.1 30.65 64.35 29.1 62.55 28.6
Q 55.9 28 50.4 24.95
L 46.85 22.65
Q 46.1 25.4 45.15 27.2
L 44.8 27.8 Z"/>

<path fill="#505870" stroke="none" d="
M 26.2 3
L 26.95 3.05
Q 28.05 2.15 29.25 2.3
L 31.35 2.65
Q 29.75 2.05 28.05 1.75
L 24.55 1.4 23.8 1.4 18.95 1.95 16.55 2.15 12.9 2.95 9.3 1.8
Q 10.75 3.4 15.05 3.6
L 16.95 3.7 26 3 26.2 3
M 48.45 20.4
L 47.6 19.35 47.05 21.9 46.85 22.65 50.4 24.95
Q 55.9 28 62.55 28.6 59.1 27.5 57.95 26.8
L 56.2 26 52.3 23.45 51.7 23.05
Q 49.75 21.85 48.45 20.4 Z"/>

<path fill="#B4A385" stroke="none" d="
M 41.7 17.45
L 41.55 17.25 35.9 9.85
Q 30.55 3.85 26.45 3.5
L 26.2 3.75 25.1 5.3
Q 23.2 8.6 20.9 15.55
L 19.45 19.3
Q 17.55 23.65 13.45 26.1 8.85 28.8 4.4 25.65
L 3.25 24.45 2.95 24.05 3.65 29.25
Q 3.85 31.25 4.8 33.1 5.65 32.1 7.1 31.5
L 8.2 31.15
Q 10.65 30.5 15.05 30.5
L 18.1 30.75 19 30.9 21.05 32.1 21.15 32.15 22.05 32.8 23.75 32.45 24 32.4 22.8 31.45 22.6 31.25 21.6 30.3 22.6 31.25 22.8 31.45 23.2 31 23.9 30.3 25.15 29.4 28.5 30.95 30.45 30.15 30.65 29.95 31.6 29.3 29.8 28.3 28 28.5 28.8 29.05 30.4 30.1 28.8 29.05 28 28.5 24.5 25.9 28 28.5 29.8 28.3 31.6 29.3
Q 34.6 27.15 36.55 25.2
L 34.45 24.15 36.55 25.2 37.3 24.45 39.2 22.05
Q 40.7 19.85 41.7 17.45 Z"/>
</g>

<g id="Symbol_24_0_Layer4_0_FILL">
<path fill="#FFFFFF" stroke="none" d="
M 34.85 0.2
L 34.3 1 32.8 2.2
Q 31.55 3 29.75 3.05 27.85 3.05 26.7 1.4 27.05 2.3 27.95 3 29.5 4 31.3 3.7 33.3 3.3 34.6 1.9
L 34.8 1.65 36.95 -1.15 34.85 0.2 Z"/>

<path fill="#9C1F1F" stroke="none" d="
M 34.3 1
L 34.85 0.2
Q 34.4 0.6 33.45 0.8
L 32.8 1.25
Q 31.15 2.2 29.45 1.7 27.55 1.1 26.7 -0.4
L 26.6 0.2 26.7 1.4
Q 27.85 3.05 29.75 3.05 31.55 3 32.8 2.2
L 34.3 1 Z"/>

<path fill="#D94041" stroke="none" d="
M 27.75 -1.65
Q 27.1 -1.2 26.7 -0.4 27.55 1.1 29.45 1.7 31.15 2.2 32.8 1.25
L 33.45 0.8 31.95 1.05
Q 32.05 0.15 31.65 -0.7 31 -2.05 29.5 -2.15
L 27.9 -1.75 27.75 -1.65
M 29.55 -1.75
L 29.7 -1.7 29.9 -1.4 29.85 -0.9
Q 29.75 -0.7 29.45 -0.7
L 28.9 -0.75 28.95 -0.95 28.6 -1.3
Q 28.25 -1.5 27 -0.55
L 28 -1.45 28.95 -1.8 29.55 -1.75 Z"/>

<path fill="#EB9C9C" stroke="none" d="
M 29.7 -1.7
L 29.55 -1.75 28.95 -1.8 28 -1.45 27 -0.55
Q 28.25 -1.5 28.6 -1.3
L 28.95 -0.95 28.9 -0.75 29.45 -0.7
Q 29.75 -0.7 29.85 -0.9
L 29.9 -1.4 29.7 -1.7 Z"/>
</g>

<g id="Symbol_24_0_Layer3_0_FILL">
<path fill="#FFFFFF" stroke="none" d="
M 29.9 12.3
L 27.2 12.1 26.35 12.4 24.35 12.45
Q 22.75 12.35 21.15 11.25 19.6 10.05 19.7 7.9 19.35 8.9 19.7 10 20.35 11.85 22.05 12.7 24 13.7 25.95 13.35
L 26.35 13.3 29.9 12.3 Z"/>

<path fill="#9C1F1F" stroke="none" d="
M 20.8 6.35
L 20.35 6.9 19.7 7.9
Q 19.6 10.05 21.15 11.25 22.75 12.35 24.35 12.45
L 26.35 12.4 27.2 12.1 25.75 11.7 24.85 11.65
Q 22.9 11.4 21.75 9.9 20.6 8.2 20.8 6.35 Z"/>

<path fill="#D94041" stroke="none" d="
M 22.7 6.05
L 22.45 6.05
Q 21.65 5.95 20.8 6.35 20.6 8.2 21.75 9.9 22.9 11.4 24.85 11.65
L 25.75 11.7 24.25 10.95
Q 24.95 10.2 25.1 9.3 25.45 7.7 24.3 6.7 23.55 6.15 22.7 6.05
M 23.3 7.9
L 22.9 7.5 23 7.4 23 6.85
Q 22.8 6.45 21.15 6.5
L 22.55 6.35
Q 23.2 6.35 23.6 6.65
L 24.05 7.1 24.1 7.25 24.1 7.6 23.8 7.95 23.3 7.9 Z"/>

<path fill="#EB9C9C" stroke="none" d="
M 22.9 7.5
L 23.3 7.9 23.8 7.95 24.1 7.6 24.1 7.25 24.05 7.1 23.6 6.65
Q 23.2 6.35 22.55 6.35
L 21.15 6.5
Q 22.8 6.45 23 6.85
L 23 7.4 22.9 7.5 Z"/>
</g>

<g id="Symbol_24_0_Layer2_0_FILL">
<path fill="#D94041" stroke="none" d="
M 25.95 -6.65
L 25.9 -7.15 25.6 -6.25
Q 25.15 -6.6 24.6 -6.6 23.7 -6.65 23.25 -5.95 22.95 -5.4 23 -4.95
L 22.95 -4.8
Q 23 -4.35 23.35 -3.9 24.4 -3.9 25.25 -4.75 26 -5.55 25.95 -6.65
M 23.55 -5.85
L 23.75 -5.9 24 -5.75 23.95 -5.45 23.8 -5.2
Q 23.75 -5.15 23.7 -5.25
L 23.45 -5.2
Q 23.2 -5.05 23.4 -4.1
L 23.15 -4.9 23.25 -5.5 23.5 -5.8 23.55 -5.85 Z"/>

<path fill="#EB9C9C" stroke="none" d="
M 23.75 -5.9
L 23.55 -5.85 23.5 -5.8 23.25 -5.5 23.15 -4.9 23.4 -4.1
Q 23.2 -5.05 23.45 -5.2
L 23.7 -5.25
Q 23.75 -5.15 23.8 -5.2
L 23.95 -5.45 24 -5.75 23.75 -5.9 Z"/>
</g>

<g id="Symbol_24_0_Layer1_0_FILL">
<path fill="#FFFFFF" stroke="none" d="
M 10.6 11.55
Q 10.4 9.85 11.75 8.6 10.9 9.05 10.45 9.9 9.7 11.45 10.25 13.1 10.85 14.8 12.3 15.85
L 12.5 16.05 15.3 17.65 13.8 15.85
Q 13.45 15.6 13.05 15.5
L 11.8 14.25
Q 10.9 13.25 10.6 11.55 Z"/>

<path fill="#9C1F1F" stroke="none" d="
M 13.4 8.35
L 12.8 8.35 11.75 8.6
Q 10.4 9.85 10.6 11.55 10.9 13.25 11.8 14.25
L 13.05 15.5
Q 13.45 15.6 13.8 15.85
L 13.15 14.7 12.65 14.1
Q 11.5 12.75 11.8 11.15 12.1 9.35 13.4 8.35 Z"/>

<path fill="#D94041" stroke="none" d="
M 14.6 9.15
Q 14.15 8.6 13.4 8.35 12.1 9.35 11.8 11.15 11.5 12.75 12.65 14.1
L 13.15 14.7 12.7 13.35
Q 13.55 13.3 14.25 12.8 15.5 12.05 15.35 10.7 15.25 9.9 14.75 9.3
L 14.6 9.15
M 14 10.35
L 14.15 10.3 14.45 10
Q 14.6 9.65 13.5 8.65
L 14.5 9.45 14.95 10.2 14.95 10.8 14.9 10.95 14.7 11.15 14.25 11.2 14 10.85 14 10.35 Z"/>

<path fill="#EB9C9C" stroke="none" d="
M 14.15 10.3
L 14 10.35 14 10.85 14.25 11.2 14.7 11.15 14.9 10.95 14.95 10.8 14.95 10.2 14.5 9.45 13.5 8.65
Q 14.6 9.65 14.45 10
L 14.15 10.3 Z"/>
</g>

<g id="Symbol_24_0_Layer0_0_FILL">
<path fill="#D94041" stroke="none" d="
M 4.55 10.15
Q 3.85 11 4.05 12.1
L 4.15 12.55 4.35 11.65 5.35 11.9
Q 6.3 11.85 6.65 11.05
L 6.8 10.1 6.7 9.95 6.3 9.1
Q 5.35 9.3 4.55 10.15
M 6.6 10.1
L 6.6 10.7 6.4 11.05 6.35 11.05 6.15 11.1 5.9 10.95 5.85 10.75 6 10.45 6.05 10.45 6.35 10.35
Q 6.6 10.2 6.3 9.35
L 6.6 10.1 Z"/>

<path fill="#EB9C9C" stroke="none" d="
M 6.6 10.7
L 6.6 10.1 6.3 9.35
Q 6.6 10.2 6.35 10.35
L 6.05 10.45 6 10.45 5.85 10.75 5.9 10.95 6.15 11.1 6.35 11.05 6.4 11.05 6.6 10.7 Z"/>
</g>

<g id="Symbol_28_0_Layer1_0_FILL">
<path fill="#BF9642" stroke="none" d="
M 4.1 20.35
Q 3.65 20.35 3.4 20.75
L 2.65 22.15 2.65 23.2
Q 3.7 25 5.15 24.45
L 5.95 24.45
Q 6.6 24.6 7.25 23.9 7.85 23.3 7.2 20.75 6.55 18.2 7.9 20.8
L 9.3 23.4 8.45 20.8
Q 7.8 19.4 6.1 17.85
L 6.1 20.9 4.1 20.35
M 2.95 18.3
L 2.6 16.3 2.45 16.4 1.9 17.65 1.5 18.75
Q 0.9 18.8 0.15 18.45
L -0.4 19 -1.3 19.05 -2.35 18.8
Q -2.1 19.75 -2.15 21.3 -1.5 22.95 -0.55 23.05 0.65 23.05 1.55 22 2.4 20.9 2.4 19.35 2.4 19.2 2.85 19.2
L 2.8 20.9 2.95 19.55 2.95 18.3
M 9.95 3.05
Q 8.3 0.5 7.55 0.5 5.75 0.5 4.95 1.4 4.4 2.05 4.4 2.85
L 4.5 3.6 4.3 4.25 4.25 4.45 3.95 5.25
Q 6.25 5.5 7.25 8.2 8.2 10.9 8.7 14.65 9.5 16.65 11.9 18.25
L 14.25 19.95
Q 13.85 18.95 12.95 18.35 11.35 17.3 11.15 16.65
L 10.5 14.9 9.35 11
Q 8.55 8.15 8.55 6.95
L 8.8 5.55 9.5 5
Q 10.3 4.65 9.95 3.05 Z"/>

<path fill="#FFD45B" stroke="none" d="
M 2.45 6.5
L 2.15 6.65
Q 1.75 6.45 1.4 7.45
L 1.35 7.6 1.2 7.95 0.95 9.35 0.9 9.6 0.55 11.55 0.2 13.35
Q -0.05 14.45 -0.4 15.05 -0.85 16 -1.85 17.15 -2.45 17.8 -2.45 18.65
L -2.4 18.75 -2.35 18.8 -1.3 19.05 -0.4 19 0.15 18.45
Q 0.9 18.8 1.5 18.75
L 1.9 17.65 2.45 16.4 2.6 16.3 2.95 18.3 2.95 19.55 2.8 20.9 2.75 21.2 2.65 22.15 3.4 20.75
Q 3.65 20.35 4.1 20.35
L 6.1 20.9 6.1 17.85
Q 7.8 19.4 8.45 20.8
L 9.3 23.4 9.45 23.7 11.1 24.1 13.6 23.95
Q 14.6 23.6 14.55 21.5
L 14.25 19.95 11.9 18.25
Q 9.5 16.65 8.7 14.65 8.2 10.9 7.25 8.2 6.25 5.5 3.95 5.25 3.4 6.1 2.45 6.5 Z"/>
</g>

<g id="Symbol_28_0_Layer0_0_FILL">
<path fill="#333333" stroke="none" d="
M 15.1 23.7
Q 14.6 23.55 14.2 22.65
L 13.35 20.75
Q 12.9 19.8 11.45 19.9 10 20 9.8 21.55 9.55 23 10.85 24.25 12.15 25.5 13.65 25.45 15.15 25.4 16 24.55
L 16.8 23.3 15.9 23.7 15.1 23.7
M 0.1 23.9
Q 0 23.4 0.25 22.95
L 0.75 22 1 21.25
Q 1 19.9 -0.55 19.65 -2.15 19.4 -2.15 21.85 -2.15 25.45 0.6 25.45
L 0.8 25.3
Q 0.2 24.4 0.1 23.9
M 6.5 21.75
L 3.5 21.6
Q 2.6 23.25 3.55 24.8
L 5.3 26.9 5.65 27.15 6.5 27.55 7.2 27.65 8.4 26.75 8.05 26.75
Q 6.65 26.6 6.65 25.35
L 6.6 22.3 6.5 21.75
M 10.75 -0.5
L 7.85 -0.55 6.9 0.15 6.85 0.7
Q 9.2 1.45 9.35 2.75
L 9.35 2.2 9.3 1.7
Q 9.25 0 10.9 0.1
L 11.3 0 10.75 -0.5 Z"/>
</g>

<g id="Symbol_30_0_Layer1_0_FILL">
<path fill="#BF9642" stroke="none" d="
M 9.75 5.6
L 9.75 5.55 9.3 6.25 9.95 7.6
Q 11.6 10.7 14.35 12.25
L 14.5 12.55 14.85 13.7 14.1 14.6 13.35 14.95 13.85 14.95
Q 14.5 14.95 15 14.15
L 15.4 12.95 15.35 12.7 16.45 13.1 16.75 13.75 16.9 14.45
Q 16.9 14.95 16.35 15.65 15.6 16.5 14.7 16.2
L 14.7 16.35 14.85 16.5 15.95 16.5 17.15 15.35 17.4 14.2 17.3 13.45 17.2 13.3 18.4 13.55 18.05 13.25 17.8 13.05 17.45 13
Q 15.9 12.8 14.35 11.05
L 9.75 5.6 Z"/>

<path fill="#FFD45B" stroke="none" d="
M 2.05 5.85
L 7 10.45 12.55 15.25 14.8 17.55 17.3 18.3
Q 18.05 18.3 18.8 17.5 19.5 16.75 19.5 16.1 19.5 15.05 18.95 14.2
L 18.5 13.65 18.45 13.6 18.4 13.55 17.2 13.3 17.3 13.45 17.4 14.2 17.15 15.35 15.95 16.5 14.85 16.5 14.7 16.35 14.7 16.2
Q 15.6 16.5 16.35 15.65 16.9 14.95 16.9 14.45
L 16.75 13.75 16.45 13.1 15.35 12.7 15.4 12.95 15 14.15
Q 14.5 14.95 13.85 14.95
L 13.35 14.95 14.1 14.6 14.85 13.7 14.5 12.55 14.35 12.25
Q 11.6 10.7 9.95 7.6
L 9.3 6.25 9.75 5.55 9.6 5.4 9.25 4.95 9.1 4.8 7.15 2.15
Q 4.9 -0.95 3.3 -1.45
L -0.25 0.45
Q -0.8 0.95 -0.8 1.45 -0.8 2.85 2.05 5.85 Z"/>
</g>

<g id="Symbol_30_0_Layer0_0_FILL">
<path fill="#505870" stroke="none" d="
M 6.9 -1
L 5.9 -1.2 1.2 -1.9 -3.3 -1.55 -4.55 -0.95
Q -6.6 0.5 -5.9 3
L -3.95 5 -0.6 8.15 0.1 8.75 0.15 8.75
Q 2.15 10.45 4.95 11.35
L 8.3 12.45 8.6 12.55 9.75 12.95 8.6 12.55 8.3 12.45 8.3 12.5 8.45 14.1
Q 8.65 15.55 9 15.7 8.95 15.1 9.5 14.35
L 10.15 13.65 11.2 13.75 12.5 14.1 12.95 14.2 12.9 14.05
Q 12.15 13.35 11.75 12.5
L 10.95 10.1 14.2 8.05 14.7 7.75 15.45 7.25 11.75 7.85 10.85 7.85 9.95 6.15 9.7 4.8
Q 9.6 2.8 10.9 1.3
L 11.2 0.85 11.05 0.5
Q 8.4 0.25 6.9 -1 Z"/>

<path fill="#192838" stroke="none" d="
M 6.5 -1.35
Q 5.7 -2.15 5.45 -3.05
L 5 -3.15 3.45 -3.2
Q -1.6 -3.3 -5.75 -0.75
L -6.25 -0.45 -7.8 0.7 -8 0.75 -5.9 3
Q -6.6 0.5 -4.55 -0.95
L -3.3 -1.55 1.2 -1.9 5.9 -1.2 6.9 -1 6.5 -1.35 Z"/>
</g>

<g id="Symbol_32_0_Layer1_0_FILL">
<path fill="#505870" stroke="none" d="
M 12.9 -0.45
L 12.05 -0.45 9.25 -0.1
Q 8.1 0.4 6.8 1.45 4.15 3.6 4.15 5.95 4.15 7.1 5.05 8.25
L 5.8 8.95 5.65 9.15 4.95 9.45 6.95 10.15 8.6 10.05 10.9 9.85 13.35 10.2 13.6 10.35 15.75 11.35 14.65 8.9 16.4 9.25 15.85 8.05 20.25 8.05 19.85 6.85 18 2.65 17 1.2
Q 15.55 0.05 12.9 -0.45 Z"/>
</g>

<g id="Symbol_32_0_Layer0_0_FILL">
<path fill="#F7A299" stroke="none" d="
M -5.6 11
L -5.65 11.4 -3.8 11.55
Q -2.55 11.45 -1.05 10.25
L -1 10.25
Q -1 8.95 -1.8 7.65 -2.3 7 -2.9 7.15
L -3.4 7.4 -3.9 7.85 -4.45 8.7 -5.05 9.8 -5.6 11 Z"/>

<path fill="#916C21" stroke="none" d="
M -5.95 9.6
L -7.25 11.2 -6.1 11.65 -4.7 12.05 -4.15 12 -4.55 12 -5.25 11.75 -5.65 11.4 -5.6 11 -5.05 9.8 -4.45 8.7 -3.9 7.85 -3.4 6.9 -2.65 6 -3.6 6.85 -5.95 9.6 Z"/>

<path fill="#A64F4F" stroke="none" d="
M -1.35 4.95
L -0.8 4.6 -1.05 4.75 -1.35 4.95
M 12.45 0.5
L 12.35 0.4
Q 9.6 -1.25 6.75 -0.15
L 6.15 0.1 -0.8 4.6 -1.35 4.95 -1.75 5.2 -1.9 5.3 -2.65 6 -3.4 6.9 -3.9 7.85 -3.4 7.4 -2.9 7.15
Q -2.3 7 -1.8 7.65 -1 8.95 -1 10.25
L -1.05 10.25
Q -2.55 11.45 -3.8 11.55
L -5.65 11.4 -5.25 11.75 -4.55 12 -4.15 12 -3.85 12 -3.75 11.95 -2.7 11.65 -1.45 11.25 1.85 9.4 4.65 7.75 7.95 5.05 12.45 0.5 Z"/>

<path fill="#FFD45B" stroke="none" d="
M 5.1 10.6
Q 4.25 9.35 1.85 9.4
L -1.45 11.25 -2.7 11.65 -3.75 11.95 -3.85 12 -4.15 12 -4.7 12.05 -6.1 11.65 -7.25 11.2 -5.95 9.6 -6.2 9.8
Q -7.05 10.5 -7.9 10.7
L -8.8 10.8
Q -7.35 12.2 -4.95 12.65
L -2.6 12.8 5.1 10.6 Z"/>

<path fill="#BF9642" stroke="none" d="
M 12.25 2.2
L 12.45 0.55 12.45 0.5 7.95 5.05 4.65 7.75 1.85 9.4
Q 4.25 9.35 5.1 10.6
L 5.5 10.45 6.75 9.9 7.25 9.1 8.4 7.4 8.55 7.15 12.25 2.2 Z"/>
</g>

<g id="Symbol_34_0_Layer7_0_FILL">
<path fill="#010407" stroke="none" d="
M 26.35 4.7
L 27.6 3.65
Q 29.95 1.55 31.45 -1.05
L 28.6 1.2
Q 26.55 2.8 23.85 3.75
L 22.2 4.1 22.15 4.05 22.5 3.8
Q 18.4 6.1 13.75 6.9 14.55 7.65 16 8.5 19.65 10.65 23.5 10.75 26.3 11.9 29.45 11.75
L 26.3 10.8
Q 32.1 11 34.85 8.85
L 27.55 9.4
Q 25.55 9.65 24.4 9
L 23.5 8.05 23.7 7.1 24.3 6.15 26.35 4.7
M 19 -15.6
L 19.55 -17.95 21.3 -18.85
Q 21.95 -19.45 22.1 -20.55 22 -21.7 20.55 -22.3 21.45 -21.7 20.55 -21.05 19.5 -20.05 18.15 -20 12.35 -19.9 6.75 -18.1 1.4 -16.5 -3.45 -14.25
L -2.35 -14.7 1.65 -15.75 5.35 -16.2 11.15 -15.5
Q 15.7 -14.15 17.65 -10.1
L 18.2 -8.9 18.4 -7.65 19.35 -5.45 20.3 -2.2 20.65 -3.9
Q 21 -6.1 20.7 -8.4
L 20.65 -8.65
Q 20.5 -10.6 19.65 -12.25 18.8 -14 19 -15.6 Z"/>

<path fill="#192838" stroke="none" d="
M 19.35 -5.45
L 18.4 -7.65 18.4 -6.35
Q 18.25 -3.5 16.65 -1.1
L 15.85 0 15.55 0.35
Q 14 2.7 11.9 3.65 12 4.75 12.6 5.7
L 12.8 6 13.05 6.2 13.75 6.9
Q 18.4 6.1 22.5 3.8
L 24.25 2.2 26.35 -0.1 28.7 -2.65 27.55 -1.8
Q 26.35 -0.75 23.55 0.9
L 20.9 2.4 20.7 2.5 20.9 2.4 21.05 2.3 22.55 1.1 24.75 -1.3 26.2 -3.3
Q 27.4 -5.5 27.9 -7.8
L 27.55 -9.65
Q 26.9 -13.1 25.8 -15.3
L 26.05 -12.5
Q 26.15 -10.25 25.55 -8 24.3 -3.05 20.75 0.65
L 19.95 1.4 18.5 2.7 17.95 3.15 17.8 3.2 19.25 0.65 20.3 -2.2 19.35 -5.45
M 18.2 -23.3
L 16.8 -23.6 15.75 -23.8 9.35 -23.15
Q 5 -22.35 2.3 -20.75
L -0.8 -18.9 -2.1 -18.15 -2.7 -17.7 -0.95 -18.3 1.75 -18.65 2.75 -18.7 4 -18.65 4.1 -18.6 0.2 -17.5
Q -3.25 -16.45 -7.1 -13.8
L -8.45 -12.7 -7.75 -13.8
Q -6.95 -15.05 -5.6 -15.75
L -5 -16 -7.25 -16 -3.5 -19.1 -6.8 -17.45 -6.25 -17.9 -7.75 -16.8
Q -9.4 -15.6 -10.55 -14.05 -13.5 -9.9 -14.3 -7.5
L -15.6 -4.7
Q -16.35 -1.5 -16.35 1.9
L -16.3 5.05 -15.85 2.15
Q -15.3 -0.6 -14.2 -3.2 -12.85 -6.4 -10.4 -8.95
L -10.05 -9.35
Q -7.65 -11.85 -4.7 -13.65
L -3.8 -14.1 -3.45 -14.25
Q 1.4 -16.5 6.75 -18.1 12.35 -19.9 18.15 -20 19.5 -20.05 20.55 -21.05 21.45 -21.7 20.55 -22.3
L 18.2 -23.3 Z"/>

<path fill="#505870" stroke="none" d="
M 15.75 -23.8
L 12.5 -23.95 9.6 -23.95 7.8 -24 4.4 -23.55
Q 1.7 -23.05 -1.5 -21.75
L -3.7 -20.7
Q -7.1 -18.85 -9.75 -16.05
L -11.05 -14.65
Q -13.9 -11.25 -15.05 -6.95
L -15.15 -6.6 -15.6 -4.7 -14.3 -7.5
Q -13.5 -9.9 -10.55 -14.05 -9.4 -15.6 -7.75 -16.8
L -6.25 -17.9 -6.8 -17.45 -3.5 -19.1 -7.25 -16 -5 -16 -5.6 -15.75
Q -6.95 -15.05 -7.75 -13.8
L -8.45 -12.7 -7.1 -13.8
Q -3.25 -16.45 0.2 -17.5
L 4.1 -18.6 4 -18.65 2.75 -18.7 1.75 -18.65 -0.95 -18.3 -2.7 -17.7 -2.1 -18.15 -0.8 -18.9 2.3 -20.75
Q 5 -22.35 9.35 -23.15
L 15.75 -23.8
M 22.85 -25.2
L 22.8 -25.2 24.25 -22.15 24.8 -20 25.8 -15.3
Q 26.9 -13.1 27.55 -9.65
L 27.9 -7.8
Q 28.25 -9.9 28.05 -12.1 27.65 -16.45 25.95 -20.45
L 23.95 -23.65 23.9 -23.75 22.85 -25.2 Z"/>
</g>

<g id="Symbol_34_0_Layer6_0_FILL">
<path fill="#BF9642" stroke="none" d="
M 1.95 31.15
L 0.4 30.8
Q -1.45 30 -2.7 28.35
L -3.2 30.4 -3.95 32.55 -3.95 33.5 -3.1 33.5 -0.65 32.25
Q 0.5 31.65 1.95 31.15
M 11 30.5
L 11 30.3
Q 11 29.85 10.6 29.85
L 9.3 30.8 8.05 31.65 7.2 31.8 7.1 31.8 6.75 31.85
Q 6.35 32.55 4.5 33.5 2.65 34.4 1.45 35.05 0.2 35.65 -0.25 36.2
L 0.1 36 1 35.6 3.7 34.5 5.8 33.75 6.05 33.65 6.15 33.6 6.5 33.45 7.15 33.2 7.75 32.9 7.95 32.75 8 32.75 8.05 32.75 8.15 32.65 9.7 31.45 10.05 31.2 10.3 30.95 10.4 30.85 10.45 30.85 10.5 30.8 10.6 30.7 10.65 30.65 11 30.5 Z"/>

<path fill="#FFD45B" stroke="none" d="
M 1.45 35.05
Q 2.65 34.4 4.5 33.5 6.35 32.55 6.75 31.85
L 5.2 31.75 1.95 31.15
Q 0.5 31.65 -0.65 32.25
L -3.1 33.5 -3.95 33.5 -3.95 32.55 -3.2 30.4 -2.7 28.35 -3.1 27.75 -3.8 26.6 -4 26.55 -5 26.95 -5.05 27 -5.2 27.2 -6.4 29.2 -8 32.2
Q -10.15 36.3 -10.1 38 -10.05 39.65 -9.4 41.8
L -8.7 44.1 -8.05 45.15 -7.8 45.6 -7.6 45.95 -7.55 46 -7.65 45.1 -7.2 43.25
Q -6.4 40.6 -4.3 38.9 -2.45 37.35 -0.25 36.2 0.2 35.65 1.45 35.05 Z"/>

<path fill="#010407" stroke="none" d="
M 7.25 2.25
Q 6.7 2.25 5.35 3.25
L 3.9 4.4 5.35 3.25
Q 7.1 0.75 8.3 -2.5
L 4.4 2.1 2.15 4.6 0.15 6.4
Q 1.5 5.75 2.8 5.05
L 1.8 6.85 3.45 5.6 3.55 5.5 3.8 5.35 4.4 4.95 5.65 3.95 7.25 2.25
M 24.25 10.45
L 22.45 11.75 18.25 14.15
Q 15.9 15.5 14.45 16.4
L 13.7 16.9 12.1 18.15 13.5 17.75 14.35 17.4
Q 16.1 16.45 18.2 15.9
L 23.15 15.45
Q 24.9 15.8 26.4 16.9
L 26.35 16.6 26.1 15.6 25 12.35 24.4 10.8 24.25 10.45
M 31.7 1.9
L 32.35 0.4 30 3 25.45 6.75 18.8 11.4 21 10.9 22.2 10.6 23.05 10 24.5 9.4 26.1 8.4 23.7 9.65 24.7 9.05 27.6 7.1
Q 29.85 5.65 31.7 1.9 Z"/>

<path fill="#505870" stroke="none" d="
M 10.25 3.95
Q 12.95 3.8 15.65 5.05
L 17.25 4.4 13.9 3.4 10.1 3.1 8.4 3.4
Q 5.7 4.05 4.4 4.95
L 3.8 5.35 3.45 5.6 1.8 6.85 1.5 7.15 1 7.65 1.5 7.3
Q 3.2 6.25 5.25 5.25 7.55 4.05 10.25 3.95
M 23.15 22.35
L 25.25 22.15
Q 24.15 24.05 22.8 24.95 21.6 25.6 20.35 26.2
L 22.45 25.9 19.2 28.35 17.65 29.2 18.15 28.5
Q 19.1 27.1 19.1 25.6 19.1 23.95 17.35 22.6 15.7 21.3 13.8 21.3
L 12.35 21.55
Q 11.05 21.9 11.05 22.55
L 11.1 22.75
Q 10.7 24.45 10 25.2
L 8.2 26.9 5.7 27 3.65 27.15 2.95 26.95 2.8 26.7 2.75 26.25
Q 2.9 24.8 3.2 24.1 3.55 23 2.85 22.95
L 0.75 23.8
Q -1.3 24.6 -2.2 24.6
L -3.85 24.15 -5 23.2 -5 23.25 -5 23.5 -5.1 25.7 -5.5 26.5 -5.55 26.6 -5.6 26.6 -5.85 26.85 -6.35 27.7 -7.15 28.95 -8.6 31.45 -9.6 33.5 -9.75 33.75 -10.45 35.75 -10.7 37.6 -10.65 39.2 -10.35 40.65 -9.8 42.05 -9.1 43.4 -8.7 44.1 -9.4 41.8
Q -10.05 39.65 -10.1 38 -10.15 36.3 -8 32.2
L -6.4 29.2 -5.2 27.2 -5.05 27 -5 26.95 -4 26.55 -3.8 26.6 -3.9 26.4 -4 26.25 -4.05 26.2 -4.3 26.1 -4.95 26.25 -5.55 26.55 -5.55 26.6 -5.5 26.5 -5.55 26.55 -4.95 26.25 -4.3 26.1 -4.05 26.2 -4 26.25 -3.9 26.4 -3.8 26.6 -3.1 27.75 -2.7 28.35
Q -1.45 30 0.4 30.8
L 1.95 31.15 5.2 31.75 6.75 31.85 7.1 31.8 7.2 31.8 8.05 31.65 9.3 30.8 10.6 29.85
Q 11 29.85 11 30.3
L 11 30.5 11.1 30.4 11.5 30.5 11.55 30.5 12.8 30.7 15.85 31.15
Q 18.05 31.1 20.05 29.95
L 21.35 29 21.4 29 21.7 28.75 22.55 27.9 22.75 27.75 24 25.8
Q 25.45 23.2 26.05 20.35 24.75 21.95 23.15 22.35
M 31.05 -0.55
L 30.9 -1 17.25 4.4 15.65 5.05
Q 14.65 5.5 14.3 5.9
L 11.75 11.85 11.25 12.6 10.5 13.75 10.5 13.9 10.55 14.2 10.75 14.45
Q 10.85 14.6 11 14.55 11.9 14.3 12.3 13.5
L 14.25 9.75 15.4 8
Q 16.25 6.75 18.35 6.15
L 22.35 4.7 22.65 4.6 24.25 3.95 25.25 3.5
Q 31.05 0.65 31.05 -0.55 Z"/>

<path fill="#192838" stroke="none" d="
M 30.9 -1
L 31.05 -0.55
Q 31.05 0.65 25.25 3.5
L 24.25 3.95 22.65 4.6 22.35 4.7 18.35 6.15
Q 16.25 6.75 15.4 8
L 14.25 9.75 12.3 13.5
Q 11.9 14.3 11 14.55 10.85 14.6 10.75 14.45
L 10.55 14.2 10.5 13.9 10.5 13.75 10 14.05 9.8 14.25 10 14.05 10.5 13.75 11.25 12.6 11.75 11.85 14.3 5.9
Q 14.65 5.5 15.65 5.05 12.95 3.8 10.25 3.95 7.55 4.05 5.25 5.25 3.2 6.25 1.5 7.3
L 1 7.65
Q -0.7 9.25 -2.25 11.5 -0.7 9.25 1 7.65
L 1.5 7.15 1.8 6.85 2.8 5.05
Q 1.5 5.75 0.15 6.4
L 2.15 4.6 4.4 2.1 8.3 -2.5 9.15 -5.05 1.3 1.2
Q -0.3 2.45 -1.7 3.95 -2.6 4.8 -3.15 6
L -4.65 9.5 -5.1 10.8 -5.3 11.45
Q -6.25 15.15 -5.75 17.9
L -5.2 19.8 -5.15 20.3 -5.05 21.35 -5.05 21.8 -5 22.55 -5 23.2 -3.85 24.15 -2.2 24.6
Q -1.3 24.6 0.75 23.8
L 2.85 22.95
Q 3.55 23 3.2 24.1 2.9 24.8 2.75 26.25
L 2.8 26.7 2.95 26.95 3.65 27.15 5.7 27 8.2 26.9 10 25.2
Q 10.7 24.45 11.1 22.75
L 11.05 22.55
Q 11.05 21.9 12.35 21.55
L 13.8 21.3
Q 15.7 21.3 17.35 22.6 19.1 23.95 19.1 25.6 19.1 27.1 18.15 28.5
L 17.65 29.2 19.2 28.35 22.45 25.9 20.35 26.2
Q 21.6 25.6 22.8 24.95 24.15 24.05 25.25 22.15
L 23.15 22.35
Q 24.75 21.95 26.05 20.35
L 26.25 19.5 26.35 18.75 26.4 16.9
Q 24.9 15.8 23.15 15.45
L 18.2 15.9
Q 16.1 16.45 14.35 17.4
L 13.5 17.75 12.1 18.15 13.7 16.9 14.45 16.4
Q 15.9 15.5 18.25 14.15
L 22.45 11.75 24.25 10.45 25 9.95
Q 28.6 7.55 27.9 7.45
L 26.1 8.4 24.5 9.4 23.05 10 22.2 10.6 21 10.9 18.8 11.4 25.45 6.75 30 3 32.35 0.4 33.1 -1.5 33.25 -1.95 30.9 -1 Z"/>
</g>

<g id="Symbol_34_0_Layer5_0_FILL">
<path fill="#9C1F1F" stroke="none" d="
M 1.35 14.05
L 0.3 13.25
Q 1.3 14.3 1.2 16.05 1.05 17.7 -0.55 19.4
L -2.8 21.3 -3.7 21.5 -3.85 21.6 -4.55 22.05 -5 22.3
Q -2.9 22.65 -0.45 20.85
L -0.45 20.8 -0.4 20.8
Q 1.6 18.9 1.9 16.5
L 1.95 16.05 1.85 15.1 1.35 14.05 Z"/>

<path fill="#D94041" stroke="none" d="
M 0.3 13.25
L 0.15 13.2 -0.95 13
Q -2.2 13 -3.35 13.7 -4.45 14.6 -4.75 16.35 -5.05 18.05 -3.9 18.9 -2.85 19.65 -2.15 19.25
L -2.15 19.4 -2.25 19.65 -2.45 20.15
Q -2.9 20.95 -3.7 21.5
L -2.8 21.3 -0.55 19.4
Q 1.05 17.7 1.2 16.05 1.3 14.3 0.3 13.25
M -3.8 14.55
L -3 14.05
Q -1.95 14.3 -2.05 15.25 -2.1 15.85 -2.45 16.15 -2.85 16.5 -3.5 16.5 -4.25 16.5 -4.15 15.55 -4.15 15 -3.8 14.55 Z"/>

<path fill="#EB9C9C" stroke="none" d="
M -3 14.05
L -3.8 14.55
Q -4.15 15 -4.15 15.55 -4.25 16.5 -3.5 16.5 -2.85 16.5 -2.45 16.15 -2.1 15.85 -2.05 15.25 -1.95 14.3 -3 14.05 Z"/>
</g>

<g id="Symbol_34_0_Layer4_0_FILL">
<path fill="#FFD45B" stroke="none" d="
M 14.15 24.25
L 12.5 22.85
Q 12.65 24.6 11.55 26.05 10.5 27.35 8.95 28.3
L 13.5 25.25 15.2 24.55 14.15 24.25
M -5.7 17.55
L -6.25 17.1 -4.35 22.85 -4.55 20.9 -5 19
Q -5.25 18.05 -5.7 17.55
M 8.3 20.8
Q 8.75 22.75 8.25 24.6 8.05 25.3 7.5 25.8 6.9 26.4 5.95 26.3
L 2.95 26.4 2.85 26.4 2 28 2.5 27.5
Q 2.75 27.35 3.1 27.3
L 4.6 27.4 7.05 27.8
Q 8.6 27.9 9.8 26.4 10.95 24.85 10.95 22.7 10.9 20.55 11.8 19.4
L 13.2 17.75 8.3 20.8
M 6.55 18.4
L 8.6 16.8 7.5 17.15 6.15 17.8 6 17.9
Q 3.9 19 2.55 21.15
L 2.3 21.6 1.55 23.15 1.3 23.75 2.7 22 5.75 19.1 6.55 18.4 Z"/>
</g>

<g id="Symbol_34_0_Layer3_0_FILL">
<path fill="#000000" stroke="none" d="
M 7.35 20.55
L 5.2 21.2
Q 3.8 21.5 3.2 24.2
L 2.7 26.65 2.65 26.85
Q 4 25.7 6.1 25.8 8.75 25.9 9.3 24.25 9.85 22.65 8.85 20.9
L 12.1 18.15 9.25 19.65 7.35 20.55 Z"/>
</g>

<g id="Symbol_34_0_Layer2_0_FILL">
<path fill="#FFFFFF" stroke="none" d="
M 8.55 26.4
Q 9.55 25.55 9.55 24.2 9.55 23.05 8.55 22.15 7.7 21.3 6.3 21.3 4.95 21.3 4 22.15 3.15 23.05 3.15 24.2 3.15 25.55 4 26.4 4.95 27.3 6.3 27.3 7.7 27.3 8.55 26.4 Z"/>
</g>

<g id="Symbol_34_0_Layer1_0_FILL">
<path fill="#000000" stroke="none" d="
M 7.7 22.2
Q 7.2 21.55 6.35 21.4
L 6.2 21.4 5.75 21.35
Q 4.65 21.35 3.85 22.2 3.15 23.1 3.15 24.3 3.15 25.1 3.45 25.8
L 3.65 26.15 3.85 26.4
Q 4.65 27.25 5.75 27.25 7 27.25 7.7 26.4 8.5 25.55 8.5 24.3 8.5 23.1 7.7 22.2 Z"/>
</g>

<g id="Symbol_34_0_Layer0_0_FILL">
<path fill="#FFFFFF" stroke="none" d="
M 8.45 24.5
L 8.75 23.9 8.45 23.25
Q 8.2 23 7.85 23
L 7.2 23.25 6.95 23.9 7.2 24.5 7.85 24.8
Q 8.2 24.8 8.45 24.5 Z"/>
</g>

<g id="Symbol_37_0_Layer0_0_FILL">
<path fill="#505870" stroke="none" d="
M -9.75 -5.65
L -10 -3.5 -10.05 -2.4
Q -8.4 -2.3 -7.45 -5.8 -6.5 -9.35 -3.7 -11.2
L 0.5 -14.1
Q -3.05 -13.5 1.3 -16.65 -0.7 -16.85 -3.05 -15.6 -8.65 -12.75 -9.65 -6.45
L -9.75 -5.65
M 29 -53.05
L 29.55 -54.25 24.4 -49.1
Q 19.6 -44.25 18 -34.35
L 17.65 -32.35
Q 17.15 -30.5 16.15 -28.9 16.6 -27.9 17.4 -27.3 18.6 -26.35 20.4 -26.35
L 20.7 -26.35 21 -26 21 -27 20.95 -29.25 23.1 -34.55
Q 25.1 -39.75 27.95 -42.65 24.35 -40.4 21.6 -35.5
L 21.45 -35.2
Q 22.65 -42.5 26.75 -48.8 27.65 -50.9 28.95 -53
L 29 -53.05 Z"/>

<path fill="#D94041" stroke="none" d="
M 51.75 -18.55
L 52.85 -18.4 52.05 -18.7 50.3 -19.1
Q 48.85 -19.35 47.6 -17.75
L 47.05 -16.9
Q 46.55 -16 46.55 -14.9 46.55 -13.65 48.1 -12.15
L 48.4 -11.85
Q 50.2 -10.25 51.35 -10.25
L 53.35 -10.65
Q 54.35 -10.65 55.1 -9.4 55.7 -8.35 55.7 -7.3 55.7 -6 54.75 -5.15
L 55.55 -4.75
Q 60.65 -2.4 66.4 -1.95 72.55 -1.1 77.15 -5.1
L 76.9 -5.8 76.05 -6.65
Q 71.95 -9.25 68 -12.15
L 66.95 -12.95 64.9 -14.5 64.8 -14.45 63.4 -14.5
Q 62.65 -14.5 60.45 -15.3
L 57.5 -16.1
Q 56.15 -16.1 55.15 -15.35
L 54.4 -14.65 54.15 -14.35
Q 53.15 -13.25 52.75 -13.25
L 51.95 -13.3
Q 51.4 -13.4 50.85 -13.65 49.4 -14.3 49.4 -15.6 49.45 -16.35 49.8 -17.1
L 49.85 -17.15
Q 50.5 -18.55 51.75 -18.55
M 68.25 -37.15
L 67.85 -37.2 67.6 -37.05 68.4 -36.75
Q 69.7 -36 69.7 -33.85 69.7 -32.4 68.9 -31.5 68 -30.5 66.35 -30.5 65.05 -30.5 63.5 -31.8
L 62.05 -33.2 61.85 -33.45 60.7 -34.5
Q 59.65 -35.5 58.15 -35.75
L 56.55 -35.9 54.95 -35.8
Q 53.7 -35.75 52.5 -35.05 50.9 -34.1 50.3 -32.4 49.95 -31.4 49.9 -30.4
L 49.9 -29.95
Q 49.95 -29.3 50.3 -28.75
L 50.5 -28.4 51.6 -27
Q 52.7 -26 54.25 -25.4
L 54.55 -25.3 55.7 -25.35
Q 57.75 -25.25 58.85 -27.1
L 56.35 -26.6 55.8 -26.65
Q 54.1 -26.95 53.35 -28.6 53.1 -29.2 53.2 -29.75
L 53.45 -30.6
Q 54.1 -31.65 55.35 -31.95
L 57.15 -31.75 57.6 -31.65 58.6 -31.15 59.85 -29.9 60.25 -29.2 60.35 -28.7
Q 60.65 -27 60.25 -25.25
L 60.2 -25.1
Q 60.2 -21.85 63.05 -22.05 65.85 -22.25 65.85 -20.25
L 65.8 -19.1 67.55 -18.7 70.1 -18.7 71.1 -18.65
Q 75.35 -18.6 81.7 -21.2 88.85 -24.2 91.3 -27.05
L 94.05 -30.25 94.5 -30.75
Q 97.05 -33.75 87.55 -34.4
L 80.8 -35.1 80.2 -35.2
Q 76.3 -35.9 74.1 -36.95
L 68.25 -37.15
M 72.4 -41.05
Q 73.55 -40.55 73.55 -39.4 73.55 -38.5 70.1 -37.9 68.65 -37.65 67.85 -37.2
L 68.25 -37.15 74.1 -36.95
Q 77.05 -37.85 80.3 -39.5 85.75 -42.3 87.7 -44.55
L 87.7 -45.55 86.5 -45.55 77.55 -43.9 76.25 -43.65 73.75 -43.25 72.3 -42.8 71.6 -42.6 71.35 -42.5 71.85 -41.4
Q 72.1 -41.15 72.4 -41.05
M 27.05 -10.5
L 26.6 -9.95 27.1 -7.75
Q 27.8 -5.55 29.2 -3.35
L 30.25 -1.85
Q 33.05 1.8 35.95 3.3
L 37.6 3.95 37.6 1.85 36.55 -1.8 35.6 -5.65 35.35 -5.95 35.2 -6.15 34.75 -6.7 34.45 -6.95
Q 33.8 -7.7 33.1 -9
L 32.8 -9.55 32.55 -10.05 32.55 -9.7 32.45 -8.9
Q 31.95 -5.95 30.45 -5.95 29.55 -5.95 29.15 -6.4 28.75 -6.9 28.65 -7.8
L 28.65 -8
Q 28.55 -8.8 28.6 -9.65 28.65 -10.6 30.55 -11.25 29.4 -12.3 27.7 -11.25
L 27.05 -10.5
M 38.4 -12.85
Q 37.55 -14.5 35.7 -14.5 34.5 -14.5 33.7 -13.6 32.9 -12.7 33.4 -11.2 33.9 -9.75 34.3 -9.45
L 34.45 -9.3 35.15 -8.95 35.05 -9.45
Q 34.9 -10.35 35.1 -11.15 35.35 -12.25 36.45 -11.95 37.3 -11.7 37.85 -10
L 38.05 -9.15
Q 38.05 -7.45 36.45 -6.8
L 35.2 -6.15 35.35 -5.95 35.6 -5.65 36.9 -4.05 38.65 -2.15
Q 44.25 3.55 48.25 3.55 49.65 3.55 50.3 2.5 50.7 1.8 50.7 0.8 50.7 0.1 47.1 -6
L 46.1 -5.15
Q 44.75 -3.95 43.95 -3.95 40.5 -3.95 39.4 -9.2
L 39.2 -10.25 38.4 -12.85
M 61.8 -53.25
L 61.8 -53.1
Q 61.8 -50.6 64.75 -49.3 66.25 -48.65 67.75 -48.5 70.15 -48.5 71.5 -50.85 72.9 -53.2 73.75 -53.2 75.2 -53.2 75.6 -51.95
L 75.8 -49.85
Q 75.8 -46.7 72.75 -46.3 68.15 -47.95 66.9 -47.55 65.6 -47.2 65.2 -46.9
L 64.4 -45.85
Q 64.05 -45.1 64.25 -44.4 64.4 -43.75 64.65 -43.45
L 65 -43.05 65.3 -42.9
Q 65.1 -43.3 65.1 -44.05 65.1 -44.8 65.95 -45.45
L 68.75 -45.7
Q 70.7 -45.3 71.6 -42.6
L 72.3 -42.8 73.75 -43.25
Q 78.8 -47.05 82.85 -52 86.35 -56.25 88.1 -61.55
L 88.25 -62 88.4 -62.4 89.2 -65.3
Q 90.15 -69.65 87.8 -68.15
L 75.4 -60.55 63.5 -54.1 61.8 -53.25
M 78.6 -83.5
Q 77.2 -80.8 75.5 -78.4
L 74.55 -77.4 71.8 -74.15 69 -71.15 68.65 -70.8 68.15 -70.35 67.35 -69.7
Q 67.6 -69.3 68.9 -68.6 70.5 -67.8 70.5 -66.55 70.5 -65.6 69.7 -64.3 68.8 -62.9 67.8 -62.9 67.25 -62.9 66.65 -63.3 65.85 -63.85 65.85 -64.65
L 66.05 -65.55 66.45 -66.55
Q 65.5 -66.15 64.7 -64.75 63.85 -63.35 63.85 -62.1 63.85 -60.7 64.45 -60.25 64.95 -59.85 66.25 -59.85 67.25 -59.85 67.9 -60.25
L 69.3 -61.1 70.4 -61.1 70.45 -61.15
Q 77.05 -68.55 78.85 -78.3 79.25 -81.3 78.6 -83.5 Z"/>

<path fill="#B4A385" stroke="none" d="
M 50.7 -51.85
Q 54.5 -56.2 54.95 -61.25
L 52.5 -59.5 43.05 -52.65
Q 36.95 -48.35 34.75 -46.25 27.55 -39.35 24.5 -32.65
L 24.1 -31.7
Q 23.1 -29.25 22.55 -26.5
L 21.6 -25.95 21.25 -25.7 21 -25.5 20.2 -24.95
Q 17.5 -23.05 13.75 -19.7 9.45 -16.3 7.85 -14.9
L 7.8 -14.8 5.95 -14
Q 3.45 -12.7 1.55 -10.85
L 0.2 -9.35
Q -0.45 -8.45 -0.4 -7.75 -0.3 -4.7 -4 -2.05
L -6.6 0.25
Q -6.55 2.25 -6.65 3.45
L -4.4 6 -3.95 6.25 -3.7 6.6 -3.45 6.8
Q -0.65 8.95 2.4 8.95 4.75 8.95 5.95 7.5
L 6.3 7.05 7.55 4.6 7.7 4.25 8.65 2.65 9.15 2.2
Q 9.95 1.5 11.1 0.95
L 8.4 -0.95 11.1 0.95 12.2 0.45 13.2 0.1 14.35 -0.25 7.65 -3.45 14.35 -0.25 18 -0.95 15.9 -4.25 18 -0.95 21.2 -1.15 15.65 -5.95 21.2 -1.15 21.65 -1.15 24.1 -1 22.55 -2.9
Q 21.45 -4.4 21 -5.5
L 20.6 -6.8 21 -5.5
Q 21.45 -4.4 22.55 -2.9
L 24.1 -1 24.2 -1 24.25 -0.85 24.2 -1 24.1 -1 25.2 0.05 24.75 -0.8
Q 23.25 -4.05 23.1 -7.05
L 23.1 -7.55 23.3 -9.65 23.35 -10.05 23.3 -9.65 23.1 -7.55 23.1 -7.05
Q 23.25 -4.05 24.75 -0.8
L 25.2 0.05 25.55 0.7 27.7 3.95 27.95 3.95 28.75 1.65 28.95 0.7 29.2 -2.75 29.2 -3.35
Q 27.8 -5.55 27.1 -7.75
L 26.6 -9.95 26.5 -10.65 26.1 -11.5 25.9 -12.05 25.85 -12.3
Q 25.2 -14.15 25.2 -16 25.2 -20.35 27.15 -22.3 29.5 -24.7 35.2 -24.4
L 35.2 -24.7
Q 32.15 -26.25 30.85 -30.1
L 37.35 -30.4 34.2 -31.55
Q 32.5 -32.1 32.2 -32.85
L 42.6 -35.95
Q 49.65 -38.4 52.05 -41.5
L 52.05 -42.85 47.8 -43.6
Q 45.05 -44.1 43.95 -45 45.6 -47.15 50.7 -51.85 Z"/>

<path fill="#FFF4CC" stroke="none" d="
M 58.2 -51.35
L 57.65 -51.3 58.2 -51.35 61.8 -53.25 63.5 -54.1 63.45 -54.1 63.95 -54.6 67.45 -57.95 67.55 -58.1 68.3 -58.8 68.7 -59.2 70.2 -60.8 70.2 -60.85 70.4 -61.1 69.3 -61.1 67.9 -60.25
Q 67.25 -59.85 66.25 -59.85 64.95 -59.85 64.45 -60.25 63.85 -60.7 63.85 -62.1 63.85 -63.35 64.7 -64.75 65.5 -66.15 66.45 -66.55
L 66.05 -65.55 65.85 -64.65
Q 65.85 -63.85 66.65 -63.3 67.25 -62.9 67.8 -62.9 68.8 -62.9 69.7 -64.3 70.5 -65.6 70.5 -66.55 70.5 -67.8 68.9 -68.6 67.6 -69.3 67.35 -69.7
L 67.05 -69.45 66.95 -69.4 63.35 -66.65 63 -66.4
Q 62.4 -66 62.2 -65.9
L 61.25 -65.25 57.1 -62.65 54.95 -61.25
Q 54.5 -56.2 50.7 -51.85 45.6 -47.15 43.95 -45 45.05 -44.1 47.8 -43.6
L 52.05 -42.85 52.05 -41.5
Q 49.65 -38.4 42.6 -35.95
L 32.2 -32.85
Q 32.5 -32.1 34.2 -31.55
L 37.35 -30.4 30.85 -30.1
Q 32.15 -26.25 35.2 -24.7
L 35.2 -24.4
Q 29.5 -24.7 27.15 -22.3 25.2 -20.35 25.2 -16 25.2 -14.15 25.85 -12.3
L 25.9 -12.05 26.1 -11.5 26.5 -10.65 26.45 -11.7 26.45 -11.75 26.45 -12.15 26.35 -12.85 26.45 -12.15 26.45 -11.75 26.45 -11.7 26.5 -10.65 26.6 -9.95 27.05 -10.5 27.7 -11.25
Q 29.4 -12.3 30.55 -11.25 28.65 -10.6 28.6 -9.65 28.55 -8.8 28.65 -8
L 28.65 -7.8
Q 28.75 -6.9 29.15 -6.4 29.55 -5.95 30.45 -5.95 31.95 -5.95 32.45 -8.9
L 32.55 -9.7 32.55 -10.05 31.25 -13 30.85 -13.6 31.25 -13 32.55 -10.05 32.8 -9.55 33.1 -9
Q 33.8 -7.7 34.45 -6.95
L 34.45 -7 34.75 -6.7 35.2 -6.15 36.45 -6.8
Q 38.05 -7.45 38.05 -9.15
L 37.85 -10
Q 37.3 -11.7 36.45 -11.95 35.35 -12.25 35.1 -11.15 34.9 -10.35 35.05 -9.45
L 35.15 -8.95 34.45 -9.3 34.3 -9.45
Q 33.9 -9.75 33.4 -11.2 32.9 -12.7 33.7 -13.6 34.5 -14.5 35.7 -14.5 37.55 -14.5 38.4 -12.85
L 39.2 -10.25 39.4 -9.2
Q 40.5 -3.95 43.95 -3.95 44.75 -3.95 46.1 -5.15
L 47.1 -6 46.3 -7.3 44.4 -8.1
Q 42 -9.25 41.1 -10.15 42 -9.25 44.4 -8.1
L 46.3 -7.3
Q 47.35 -6.95 48.1 -6.9
L 48.3 -6.9 49.2 -7.05 49.2 -7.9 49 -8.6 47.7 -9.55 47.4 -9.75 40.6 -14.35 47.4 -9.75 47.7 -9.55 49 -8.6
Q 51.75 -6.65 54.75 -5.15 55.7 -6 55.7 -7.3 55.7 -8.35 55.1 -9.4 54.35 -10.65 53.35 -10.65
L 51.35 -10.25
Q 50.2 -10.25 48.4 -11.85
L 48.1 -12.15
Q 46.55 -13.65 46.55 -14.9 46.55 -16 47.05 -16.9
L 47.6 -17.75
Q 48.85 -19.35 50.3 -19.1
L 52.05 -18.7 52.85 -18.4 51.75 -18.55
Q 50.5 -18.55 49.85 -17.15
L 49.8 -17.1
Q 49.45 -16.35 49.4 -15.6 49.4 -14.3 50.85 -13.65 51.4 -13.4 51.95 -13.3
L 52.75 -13.25
Q 53.15 -13.25 54.15 -14.35
L 54.4 -14.65 55.15 -15.35
Q 56.15 -16.1 57.5 -16.1
L 60.45 -15.3
Q 62.65 -14.5 63.4 -14.5
L 64.8 -14.45 64.9 -14.5 61.75 -17.05 57.95 -18.35 56.15 -19.15 55.15 -19.75 56.15 -19.15 57.95 -18.35 61.75 -17.05
Q 66.35 -15.85 70.95 -15.95
L 72.55 -16 67.55 -18.7 65.8 -19.1 57.55 -21.1 48.25 -24.5 57.55 -21.1 65.8 -19.1 65.85 -20.25
Q 65.85 -22.25 63.05 -22.05 60.2 -21.85 60.2 -25.1
L 60.25 -25.25
Q 60.65 -27 60.35 -28.7
L 60.25 -29.2 59.85 -29.9 58.6 -31.15 57.6 -31.65 57.15 -31.75 55.35 -31.95
Q 54.1 -31.65 53.45 -30.6
L 53.2 -29.75
Q 53.1 -29.2 53.35 -28.6 54.1 -26.95 55.8 -26.65
L 56.35 -26.6 58.85 -27.1
Q 57.75 -25.25 55.7 -25.35
L 54.55 -25.3 54.25 -25.4
Q 52.7 -26 51.6 -27
L 50.5 -28.4 50.3 -28.75
Q 49.95 -29.3 49.9 -29.95
L 49.9 -30.4
Q 49.95 -31.4 50.3 -32.4 50.9 -34.1 52.5 -35.05 53.7 -35.75 54.95 -35.8
L 56.55 -35.9 58.15 -35.75
Q 59.65 -35.5 60.7 -34.5
L 61.85 -33.45 62.05 -33.2 63.5 -31.8
Q 65.05 -30.5 66.35 -30.5 68 -30.5 68.9 -31.5 69.7 -32.4 69.7 -33.85 69.7 -36 68.4 -36.75
L 67.6 -37.05 67.85 -37.2 67 -37.4 66.85 -37.45 65.45 -37.8 64.05 -38.25 64 -38.3 62.85 -38.75 64 -38.3 64.05 -38.25 65.45 -37.8 66.85 -37.45 67 -37.4 67.85 -37.2
Q 68.65 -37.65 70.1 -37.9 73.55 -38.5 73.55 -39.4 73.55 -40.55 72.4 -41.05 72.1 -41.15 71.85 -41.4
L 71.35 -42.5 69.9 -42.2 68.9 -42 62.65 -41.45 62.3 -41.45 59.55 -41.55 54.3 -42.15 59.55 -41.55 62.3 -41.45 62.65 -41.45 68.9 -42 69.9 -42.2 71.35 -42.5 71.6 -42.6
Q 70.7 -45.3 68.75 -45.7
L 65.95 -45.45
Q 65.1 -44.8 65.1 -44.05 65.1 -43.3 65.3 -42.9
L 65 -43.05 64.65 -43.45
Q 64.4 -43.75 64.25 -44.4 64.05 -45.1 64.4 -45.85
L 65.2 -46.9
Q 65.6 -47.2 66.9 -47.55 68.15 -47.95 72.75 -46.3 75.8 -46.7 75.8 -49.85
L 75.6 -51.95
Q 75.2 -53.2 73.75 -53.2 72.9 -53.2 71.5 -50.85 70.15 -48.5 67.75 -48.5 66.25 -48.65 64.75 -49.3 61.8 -50.6 61.8 -53.1
L 61.8 -53.25 58.2 -51.35 Z"/>

<path fill="#192838" stroke="none" d="
M 75.5 -78.4
Q 77.2 -80.8 78.6 -83.5
L 78.75 -83.8
Q 80.2 -86.7 76.85 -82.55
L 69.95 -75.1 65.95 -71.45 61.55 -68.35 58.95 -66.6 54.95 -63.95 49.45 -60.15
Q 44.75 -56.75 41 -54.9 37.25 -53.05 32.3 -49.85
L 31.3 -49.1 28.25 -46.4
Q 26.75 -44.95 26.95 -46.9 27.05 -48.15 28.05 -50.75
L 28.95 -53
Q 27.65 -50.9 26.75 -48.8 22.65 -42.5 21.45 -35.2
L 21.6 -35.5
Q 24.35 -40.4 27.95 -42.65 25.1 -39.75 23.1 -34.55
L 20.95 -29.25 21 -27 21 -26 20.7 -26.35 20.4 -26.35
Q 18.6 -26.35 17.4 -27.3 16.6 -27.9 16.15 -28.9
L 16.1 -28.8 15.5 -27.95 14.9 -27.3 14.65 -27.1 1.6 -16.65 1.3 -16.65
Q -3.05 -13.5 0.5 -14.1
L -3.7 -11.2
Q -6.5 -9.35 -7.45 -5.8 -8.4 -2.3 -10.05 -2.4 -10.15 -0.45 -9.5 1.45
L -9.45 1.5 -9.3 1.8 -9.2 0.75 -9.1 -0.15 -9.2 0.75 -9.3 1.8 -9.8 6.75 -9.8 6.85
Q -8.15 5.3 -7.7 3.1
L -7.7 2.8 -7.65 2.7 -6.9 4.65 -6.65 3.45
Q -6.55 2.25 -6.6 0.25
L -6.7 -0.95 -6.6 0.25 -4 -2.05
Q -0.3 -4.7 -0.4 -7.75 -0.45 -8.45 0.2 -9.35
L 1.55 -10.85
Q 3.45 -12.7 5.95 -14
L 7.8 -14.8 7.85 -14.9
Q 9.45 -16.3 13.75 -19.7 17.5 -23.05 20.2 -24.95
L 21 -25.5 21.25 -25.7 21.6 -25.95 22.55 -26.5
Q 23.1 -29.25 24.1 -31.7
L 24.5 -32.65
Q 27.55 -39.35 34.75 -46.25 36.95 -48.35 43.05 -52.65
L 52.5 -59.5 54.95 -61.25 57.1 -62.65 61.25 -65.25 62.2 -65.9
Q 62.4 -66 63 -66.4
L 63.35 -66.65 66.95 -69.4 67.05 -69.45 67.35 -69.7 68.15 -70.35 68.65 -70.8 69 -71.15 71.8 -74.15 74.55 -77.4 75.5 -78.4 Z"/>
</g>

<g id="Symbol_95_0_Layer0_0_FILL">
<path fill="#FF0000" fill-opacity="0.011764705882352941" stroke="none" d="
M 50 50
L 50 0 0 0 0 50 50 50 Z"/>
</g>

<path id="Symbol_5_0_Layer1_0_1_STROKES" stroke="#000000" stroke-width="0.05" stroke-linejoin="round" stroke-linecap="round" fill="none" d="
M 4.75 5.85
L 5.05 5.05 5.1 4.85 5.3 4.2 5.2 3.45
Q 5.2 2.65 5.75 2 6.55 1.1 8.35 1.1 9.1 1.1 10.75 3.65 11.1 5.25 10.3 5.6
L 9.6 6.15 9.35 7.55
Q 9.35 8.75 10.15 11.6
L 11.3 15.5 11.95 17.25
Q 12.15 17.9 13.75 18.95 14.65 19.55 15.05 20.55
L 15.35 22.1
Q 15.4 24.2 14.4 24.55
L 11.9 24.7 10.25 24.3 10.1 24 8.7 21.4
Q 7.35 18.8 8 21.35 8.65 23.9 8.05 24.5 7.4 25.2 6.75 25.05
L 5.95 25.05
Q 4.5 25.6 3.45 23.8
L 3.45 22.75 3.55 21.8 3.6 21.5 3.65 19.8
Q 3.2 19.8 3.2 19.95 3.2 21.5 2.35 22.6 1.45 23.65 0.25 23.65 -0.7 23.55 -1.35 21.9 -1.3 20.35 -1.55 19.4
L -1.6 19.35 -1.65 19.25
Q -1.65 18.4 -1.05 17.75 -0.05 16.6 0.4 15.65
L 1 13.95 1.35 12.15 1.7 10.2 1.75 9.95 2 8.55 2.15 8.2 2.2 8.05
Q 2.55 7.05 2.95 7.25
L 3.25 7.1
Q 4.2 6.7 4.75 5.85 Z"/>

<path id="Symbol_5_0_Layer0_0_1_STROKES" stroke="#000000" stroke-width="0.05" stroke-linejoin="round" stroke-linecap="round" fill="none" d="
M 11.7 0.7
Q 10.05 0.6 10.1 2.3
L 10.15 2.8 10.15 3.35
Q 10 2.05 7.65 1.3
L 7.7 0.75 8.65 0.05 11.55 0.1 12.1 0.6 11.7 0.7 Z
M 4.3 22.2
Q 3.4 23.85 4.35 25.4
L 6.1 27.5 6.45 27.75 7.3 28.15 8 28.25 9.2 27.35 8.85 27.35
Q 7.45 27.2 7.45 25.95
L 7.4 22.9 7.3 22.35 4.3 22.2 Z
M 1.05 23.55
Q 0.8 24 0.9 24.5 1 25 1.6 25.9 1.75 26.05 1.4 26.05 -1.35 26.05 -1.35 22.45 -1.35 20 0.25 20.25 1.8 20.5 1.8 21.85
L 1.55 22.6 1.05 23.55 Z
M 15 23.25
Q 15.4 24.15 15.9 24.3
L 16.7 24.3 17.6 23.9 16.8 25.15
Q 15.95 26 14.45 26.05 12.95 26.1 11.65 24.85 10.35 23.6 10.6 22.15 10.8 20.6 12.25 20.5 13.7 20.4 14.15 21.35
L 15 23.25 Z"/>

<path id="Symbol_7_0_Layer1_0_1_STROKES" stroke="#000000" stroke-width="0.05" stroke-linejoin="round" stroke-linecap="round" fill="none" d="
M 8.25 6.85
L 8.1 6.7 7.75 6.25 7.6 6.1 5.65 3.45 4.65 2.15 3.25 0.7 1.7 -0.25 -1.85 1.65
Q -2.4 2.15 -2.4 2.65 -2.4 3.55 -1.2 5.1 -2.3 3.6 -2.3 2.75 -2.3 2.25 -1.75 1.75
L 1.8 -0.15
Q 2.45 0.05 3.25 0.7
M -1.2 5.1
L 0.45 7.05 0.55 7.15 4.65 11.05 5.5 11.75 11.05 16.55 11.45 16.9 12.75 18.15 13.3 18.85
M 13.55 13.05
Q 14.75 14.15 15.95 14.3
L 16.3 14.35
M 16.2 14.25
L 15.85 14.2
Q 14.7 14.05 13.55 13.05
L 13.1 12.65 12.85 12.35 8.25 6.9
M 12.75 18.15
L 13.2 18.75"/>

<path id="Symbol_7_0_Layer0_0_1_STROKES" stroke="#000000" stroke-width="0.05" stroke-linejoin="round" stroke-linecap="round" fill="none" d="
M 9.45 6.4
Q 9.35 5.3 9.55 4.5
L 10.1 3.1 10.35 2.7 10.85 2.1 10.75 1.75
Q 7.8 1.15 6.45 -0.65 5.75 -1.55 5.6 -2.5
M -8.2 -0.3
L -5.65 3.1 -4.65 4.35 -1.05 8.6
Q 0.75 10.5 3.35 11.75
L 6.6 13.25 6.9 13.4 8 13.95
M 13.35 11.2
L 15.85 11.05 14.9 10.35 13.9 9.8 14 9.8 18.05 8.3 14.5 7.9 11.25 8.1 12.1 6.7 12.4 6.1 12.2 6.25 12 6.5 10.9 7.45 10.25 8.1 10.2 8.1 10.15 8 10.05 7.8
M 9.9 7.45
L 9.85 7.35 9.65 6.95"/>

<path id="Symbol_7_0_Layer0_0_2_STROKES" stroke="#000000" stroke-width="0.1" stroke-linejoin="round" stroke-linecap="round" fill="none" d="
M 9.65 6.95
L 9.45 6.4
M 6.6 13.25
L 6.6 13.3
Q 6.5 14 6.55 14.9 6.55 16.4 6.9 16.6 6.9 16 7.55 15.3
L 8.3 14.7 9.3 14.9 10.55 15.4 11 15.55 10.95 15.4 10.45 12.95
Q 10.45 12.65 11.95 12.35
L 14.2 12.15 14.3 12.1
Q 12.75 11.3 11.25 11.4
L 13.35 11.2"/>

<path id="Symbol_9_0_Layer1_0_1_STROKES" stroke="#000000" stroke-width="0.05" stroke-linejoin="round" stroke-linecap="round" fill="none" d="
M 23.2 0.2
Q 28.4 0.8 32 3.25 35.3 5.45 37.05 8.3 37.25 8.4 37.05 8.75 35.3 11.55 32 13.8 28.6 16.1 23.8 16.75
L 19.6 17
Q 11.95 17 7.05 14.05 2.4 11.2 0 8.6
L 0.2 8.4
Q 2.4 5.85 7.05 3 11.95 0 19.6 0
L 23.2 0.2 Z"/>

<path id="Symbol_11_0_Layer1_0_1_STROKES" stroke="#000000" stroke-width="0.05" stroke-linejoin="round" stroke-linecap="round" fill="none" d="
M 4.4 20
L -2 27.6
Q 0 22.9 -1.35 17.85
L 3.95 14.9
Q 5.35 17.15 4.4 20 Z
M 2.6 13.75
L -2.85 16.75
Q -6.7 14.75 -11.3 14.2 -3.2 13.05 -1.2 12 1.8 12.75 2.6 13.75 Z"/>

<path id="Symbol_11_0_Layer0_0_1_STROKES" stroke="#000000" stroke-width="0.05" stroke-linejoin="round" stroke-linecap="round" fill="none" d="
M 6.8 -10.45
L 5.6 -13.2 3.8 -16.55 2.75 -18.25 1.45 -19.95 0.1 -21.6 -1.45 -23.35 -5.5 -27 -4.15 -27.6 0.7 -23 3.1 -20.25 4.1 -19.05 5 -17.8 5.75 -16.75 6.4 -15.7 6.95 -14.8 7.45 -13.85 7.9 -13.15 8.6 -11.75 9.15 -10.75 9.45 -10.05 9.55 -9.8 10.2 -7.05 10.85 -4.25 11.35 -0.75 11.25 2.6 10.95 4.7
Q 9.95 8.8 7 12.45 3.65 16.55 -1.25 19
L -5.15 21.3
M -7.35 18.65
Q -4.95 17.9 -2.8 16.6 5.9 11.5 7.5 5.1
L 7.6 4.7 8 1.5 8.15 -1.85 7.85 -5.25 7.2 -8.9 6.95 -10 6.8 -10.45"/>

<path id="Symbol_13_0_Layer1_0_1_STROKES" stroke="#000000" stroke-width="0.05" stroke-linejoin="round" stroke-linecap="round" fill="none" d="
M 15.05 23.6
L 14.65 33.55
Q 13.4 28.6 9.2 25.4
L 11.6 19.8
Q 14.15 20.75 15.05 23.6 Z
M 9.85 19.75
L 7.35 25.45
Q 3.05 26.2 -0.9 28.55 4.85 22.7 5.8 20.65 8.6 19.45 9.85 19.75 Z"/>

<path id="Symbol_13_0_Layer0_0_1_STROKES" stroke="#000000" stroke-width="0.05" stroke-linejoin="round" stroke-linecap="round" fill="none" d="
M 7.15 -13.05
Q 3.3 -19.75 -3.35 -25.85 -8.5 -30.65 -14.7 -33.5
M -12.4 -28.5
Q -3.05 -21.9 2.4 -13.05 6.5 -6.35 8.35 1.65
L 8.45 2.1 9.05 5.4
Q 9.9 10.1 9.5 15.05 9.1 20 7.55 24.45
L 5.2 31.25 5 31.75
M 9.05 33.45
L 9.75 31.25 10.95 27.3
Q 12.1 23.7 12.65 19.9 13.3 15.8 13.4 11.6 13.5 6.85 12.35 2.1 10.15 -7.8 7.15 -13.05"/>

<path id="Symbol_15_0_Layer1_0_1_STROKES" stroke="#000000" stroke-width="0.05" stroke-linejoin="round" stroke-linecap="round" fill="none" d="
M 24.7 16.95
L 30.05 25.3
Q 26.15 22 20.95 21.8
L 19.65 15.9
Q 22.25 15.2 24.7 16.95 Z
M 18.2 16.85
L 19.45 22.95
Q 16.45 26.05 14.55 30.3 15.8 22.2 15.4 19.95 17 17.3 18.2 16.85 Z"/>

<path id="Symbol_15_0_Layer0_0_1_STROKES" stroke="#000000" stroke-width="0.05" stroke-linejoin="round" stroke-linecap="round" fill="none" d="
M 3.25 -7
L 3.85 -6.3 8.35 -0.45
Q 12.75 6 15.75 13.2 18.7 20.25 19.05 28.1
L 19.2 30.95 19.2 31.25 19.1 31.35
M 24.5 31.35
L 24.45 31.25 23.7 25.2
Q 22.6 17.55 19.05 10.4 15.2 2.75 11.75 -2.35
L 9.3 -5.65
Q 6.3 -9.45 1.85 -14
L -2.35 -17.5 -9.75 -23.2 -13.65 -25.85 -15.6 -27.2
Q -18.45 -29.1 -21.6 -30.65
L -23.5 -31.3 -24.4 -31.1 -24.45 -30.1
Q -24.1 -29 -23.35 -28.05 -21.3 -25.85 -18.9 -24.5 -14.3 -21.8 -9.85 -18.8 -6.7 -16.75 -3.8 -14.15 -0.05 -10.85 3.25 -7"/>

<path id="Symbol_17_0_Layer1_0_1_STROKES" stroke="#000000" stroke-width="0.05" stroke-linejoin="round" stroke-linecap="round" fill="none" d="
M 54.35 34.2
L 63.2 38.75
Q 58.2 37.85 53.55 40.3
L 49.5 35.8
Q 51.4 33.9 54.35 34.2 Z
M 48.65 37.35
L 52.85 41.95
Q 51.75 46.15 52.25 50.8 49.3 43.15 47.8 41.45 47.9 38.35 48.65 37.35 Z"/>

<path id="Symbol_17_0_Layer0_0_1_STROKES" stroke="#000000" stroke-width="0.05" stroke-linejoin="round" stroke-linecap="round" fill="none" d="
M 43.55 29.05
L 47.35 32.55
Q 54.5 39.3 58.45 44.65
M 55 45.95
L 54.25 44.65
Q 46.75 35.55 35.05 25.45
L 32.45 23.2
Q 18.95 11.85 11.5 7.75 4.1 3.65 1.95 2.75
L -0.45 1.85 -1.05 1.65
Q -1.35 1.45 -2.25 -0.55 -3.15 -2.6 4.8 1.4 12.8 5.35 24.8 14.1 35.05 21.55 43.55 29.05"/>

<path id="Symbol_19_0_Layer0_0_1_STROKES" stroke="#000000" stroke-width="0.05" stroke-linejoin="round" stroke-linecap="round" fill="none" d="
M 11.05 7
L 14.7 7.5
M 45.6 9.2
Q 46.1 8.9 45.55 8.75
L 39.4 7.95 31.8 7.2 29.6 6.9 18.8 5 18.75 5 13.5 3.8
Q 8.05 2.65 2.7 0.95 -1.6 -0.5 -5.65 -2.4
M 36.45 11.2
L 39.35 10.65 43.45 9.8 45.6 9.2"/>

<path id="Symbol_19_0_Layer0_0_2_STROKES" stroke="#000000" stroke-width="0.1" stroke-linejoin="round" stroke-linecap="round" fill="none" d="
M -12.65 13.7
Q -7.9 21.2 -0.25 26.2
L 3 28.05 -4.55 21.1 -7.15 18.05
Q -8.65 15.85 -10.15 12.8 -10.65 10.3 -8.5 7.45 -6.8 5.75 -3.15 5.45
L 11.05 7
M 14.7 7.5
L 27.1 8.2 45.6 9.2
M 36.45 11.2
L 31.2 11.7 25.35 11.8 26.15 11.95 30 12.95
Q 28.3 14.75 21.3 14.9
L 24.45 15.5 30.15 16.25 31.25 16.35 33.45 16.85 33.5 17 30.8 17.55
Q 25.5 18.35 20.4 17.7
L 19.8 17.6 14.65 16.3 19.8 18.6 19.6 18.8 18.3 19.25 16.35 19.25 13.45 19 13.85 19.1 13.95 19.35
M 16.7 10.95
L 25.35 11.8
M 3 28.05
L 0.35 24.65 -0.5 23.35 0.35 24 4.05 26.3 1.1 21.85 0.25 20.25
Q 4.35 23.2 8.45 22.8
L 10.35 22.8 10.35 22.65 7.2 20.15 6.75 19.75 4.8 18.1
Q 8.25 19.4 11 19.5
L 11.25 19.5 8.75 17.45 8.65 17.35 7.7 16.95
M 11.25 19.5
L 11.25 19.95
M 13.45 19
L 11.35 18.4 8.65 17.35"/>

<path id="Symbol_22_0_Layer0_0_1_STROKES" stroke="#000000" stroke-width="0.05" stroke-linejoin="round" stroke-linecap="round" fill="none" d="
M 11.95 -6.1
L 12.85 -7.3
Q 15.45 -11 19.35 -13.4 22.65 -12.2 26.4 -11.55 30.95 -11.35 29.5 -12.45
L 27.9 -14.25 27.6 -14.55 27.05 -14.8
Q 31.05 -14.55 34.85 -15.55
L 36 -16.1 36.35 -16.4 36.35 -17.15
Q 35.45 -18.5 34.05 -19.25
L 32.15 -20.4
Q 36.05 -21 39.25 -23.05 39.35 -25 37.25 -25.6
L 35.5 -26.15
Q 39.5 -27.35 42.95 -29.85
L 43.6 -30.4 43.45 -31.5 36.2 -31.75
Q 41.4 -33.35 45.4 -37.1
L 46.85 -38.85
Q 47.3 -39.6 47 -40.6 46.65 -41.3 45.9 -41.45
L 42.8 -41.25 37.85 -40.25 33.25 -39.85 37.4 -42.7 38.55 -43.8
Q 40.5 -45.85 42.15 -48.3
L 42.95 -49.65
Q 43.35 -50.5 42.8 -51.25
L 42.35 -51.75 37.15 -49.65 34.85 -48.8 39 -52.95
Q 41.2 -55.6 41.4 -59
L 41.25 -61 41.15 -61.15
Q 39.75 -59.75 38 -58.65
L 36.35 -57.65 32.6 -55.4
Q 34.65 -60.05 35.75 -64.95
L 35.95 -66.65
Q 36 -67.3 35.65 -67.65 34.25 -67.55 33.35 -66.2
L 32.1 -64.5 31.35 -63.2
M 11.95 -6.1
L 11.65 -5.75
Q 10.35 -4.1 9.8 -2.1 9.05 0.65 8.9 3.55
L 8.6 4
M -10.35 0.45
Q -11.25 -1.25 -10.6 -3.3
L -10.05 -5.8 -9.95 -6.2
Q -9.6 -7.6 -8.75 -8.9
L -6.95 -11.85
Q -5.8 -13.75 -4.95 -15.75
L -3.45 -20
Q -2.35 -23.6 -2.25 -27.1 -2.15 -29.9 -1.15 -32.45 0.75 -37.5 4.45 -41.5 6.1 -43.25 8.15 -44.4
L 8.4 -44.55 6.05 -39.15
Q 8.3 -42 11.15 -44.1
L 16.5 -48.05 20.25 -50.55 21.65 -51.5
Q 22.85 -52.25 23.9 -53.15
L 26 -55.5 28.45 -58.9 31.35 -63.2"/>

<path id="Symbol_27_0_Layer1_0_1_STROKES" stroke="#000000" stroke-width="0.05" stroke-linejoin="round" stroke-linecap="round" fill="none" d="
M -0.35 19.75
L -2.5 18.2
M 5.6 0.45
L 8.35 1.5
M 12.9 2.95
L 16.55 2.15 18.95 1.95"/>

<path id="Symbol_27_0_Layer1_0_2_STROKES" stroke="#000000" stroke-width="0.1" stroke-linejoin="round" stroke-linecap="round" fill="none" d="
M 45.55 16.7
L 42.95 13.45 42.8 13.25 41.85 11.9
Q 39 7.9 36.8 5.95
L 36.45 5.65 34.55 4.25 33.05 3.4 31.65 2.8 31.35 2.65 29.25 2.3
Q 28.05 2.15 26.95 3.05
L 26.45 3.5
M 36.55 25.2
Q 39.1 26.45 40.9 27.15
M 46.85 22.65
L 47.05 21.9 47.6 19.35 45.55 16.7
M 62.55 28.6
Q 59.1 27.5 57.95 26.8
L 56.2 26 52.3 23.45 51.7 23.05
Q 49.75 21.85 48.45 20.4
L 47.6 19.35
M 44.65 28.1
L 44.8 27.8 45.15 27.2
Q 46.1 25.4 46.85 22.65
M 62.55 28.6
L 64.35 29.1 69.1 30.65
M 51.25 45.4
L 47.45 45.65
Q 42.4 45.6 38.25 44.6
L 36.8 44.2 20.35 42.5 18.6 42.2
Q 15.35 41.55 12.3 40.35
L 10.65 39.5 10.4 39.3 9.8 38.8 9.6 38.65
Q 7.8 37.15 6.35 35.4
L 6.15 35.15 6.1 35.1 5.15 33.75 4.8 33.1
Q 3.85 31.25 3.65 29.25
L 2.95 24.05 2.85 23.8 2.75 23.35 -0.35 19.75
M 8.35 1.5
L 8.4 1.5 9.3 1.8 12.9 2.95
M 18.95 1.95
L 23.8 1.4 24.55 1.4 28.05 1.75
Q 29.75 2.05 31.35 2.65
M 40.9 27.15
Q 43.45 28.15 44.65 28.1 43.15 30.4 40.95 31.8 39.65 32.55 38.15 33.1 38.65 33.6 35.7 32.55 35.4 33.2 34.4 33.65 32.75 34.35 29.25 34.5
L 28.05 34.6 27.75 34.6 25.05 35 23.6 35.4
Q 22.1 35.85 21.1 36.55
L 20.3 35.95 19.1 35.1 18.3 34.6 17.35 34
Q 16.8 33.65 16.25 33.4 13.35 31.8 11.45 31.8 9.6 31.8 8.95 33.1 8.55 33.8 8.55 34.85
L 8.55 34.95
Q 8.55 35.8 9.1 37.35
L 9.45 38.3 9.6 38.65
M 26.45 3.5
L 26.2 3.75 25.1 5.3
Q 23.2 8.6 20.9 15.55
L 19.45 19.3
Q 17.55 23.65 13.45 26.1 8.85 28.8 4.4 25.65
L 3.25 24.45 2.95 24.05
M 22.05 32.8
L 21.15 32.15
M 30.45 30.15
L 32.3 31.2 33.45 31.8 33.6 31.85 34.15 32.1 35.7 32.55
M 28 28.5
L 28.8 29.05 30.4 30.1
M 24 32.4
L 24.15 32.5 24.7 32.9 26.25 33.9
M 24 32.4
L 22.8 31.45 22.6 31.25 21.6 30.3
M 22.05 32.8
L 24.15 34.35 25.05 35
M 26.25 33.9
L 27.75 34.6
M 24.5 25.9
L 28 28.5
M 34.45 24.15
L 36.55 25.2"/>

<path id="Symbol_24_0_Layer4_0_1_STROKES" stroke="#000000" stroke-width="0.1" stroke-linejoin="round" stroke-linecap="round" fill="none" d="
M 26.7 -0.4
Q 27.1 -1.2 27.75 -1.65
L 27.9 -1.75 29.5 -2.15
Q 31 -2.05 31.65 -0.7 32.05 0.15 31.95 1.05
L 33.45 0.8
Q 34.4 0.6 34.85 0.2
L 36.95 -1.15 34.8 1.65 34.6 1.9
Q 33.3 3.3 31.3 3.7 29.5 4 27.95 3 27.05 2.3 26.7 1.4
L 26.6 0.2 26.7 -0.4 Z"/>

<path id="Symbol_24_0_Layer3_0_1_STROKES" stroke="#000000" stroke-width="0.1" stroke-linejoin="round" stroke-linecap="round" fill="none" d="
M 20.8 6.35
Q 21.65 5.95 22.45 6.05
L 22.7 6.05
Q 23.55 6.15 24.3 6.7 25.45 7.7 25.1 9.3 24.95 10.2 24.25 10.95
L 25.75 11.7 27.2 12.1 29.9 12.3 26.35 13.3 25.95 13.35
Q 24 13.7 22.05 12.7 20.35 11.85 19.7 10 19.35 8.9 19.7 7.9
L 20.35 6.9 20.8 6.35 Z"/>

<path id="Symbol_24_0_Layer2_0_1_STROKES" stroke="#000000" stroke-width="0.1" stroke-linejoin="round" stroke-linecap="round" fill="none" d="
M 23.35 -3.9
L 23.65 -3.7
Q 23.9 -3.5 24.35 -3.4
L 25.5 -3.6
Q 26.45 -4.15 26.8 -5.15 27.2 -6.35 26.85 -7.45
L 26.75 -7.6 25.9 -9.55 26 -8.05 25.9 -7.15
M 23.35 -3.9
Q 23 -4.35 22.95 -4.8
L 23 -4.95
Q 22.95 -5.4 23.25 -5.95 23.7 -6.65 24.6 -6.6 25.15 -6.6 25.6 -6.25
L 25.9 -7.15"/>

<path id="Symbol_24_0_Layer1_0_1_STROKES" stroke="#000000" stroke-width="0.1" stroke-linejoin="round" stroke-linecap="round" fill="none" d="
M 13.4 8.35
Q 14.15 8.6 14.6 9.15
L 14.75 9.3
Q 15.25 9.9 15.35 10.7 15.5 12.05 14.25 12.8 13.55 13.3 12.7 13.35
L 13.15 14.7 13.8 15.85 15.3 17.65 12.5 16.05 12.3 15.85
Q 10.85 14.8 10.25 13.1 9.7 11.45 10.45 9.9 10.9 9.05 11.75 8.6
L 12.8 8.35 13.4 8.35 Z"/>

<path id="Symbol_24_0_Layer0_0_1_STROKES" stroke="#000000" stroke-width="0.1" stroke-linejoin="round" stroke-linecap="round" fill="none" d="
M 6.3 9.1
L 6 8.95 5.3 8.7 4.2 9.05
Q 3.3 9.7 3.05 10.7 2.8 11.9 3.35 12.95
L 3.35 13.15 4.4 14.9 4.1 13.45 4.15 12.55 4.35 11.65 5.35 11.9
Q 6.3 11.85 6.65 11.05
L 6.8 10.1 6.7 9.95 6.3 9.1 Z"/>

<path id="Symbol_28_0_Layer1_0_1_STROKES" stroke="#000000" stroke-width="0.05" stroke-linejoin="round" stroke-linecap="round" fill="none" d="
M 3.95 5.25
L 4.25 4.45 4.3 4.25 4.5 3.6 4.4 2.85
Q 4.4 2.05 4.95 1.4 5.75 0.5 7.55 0.5 8.3 0.5 9.95 3.05 10.3 4.65 9.5 5
L 8.8 5.55 8.55 6.95
Q 8.55 8.15 9.35 11
L 10.5 14.9 11.15 16.65
Q 11.35 17.3 12.95 18.35 13.85 18.95 14.25 19.95
L 14.55 21.5
Q 14.6 23.6 13.6 23.95
L 11.1 24.1 9.45 23.7 9.3 23.4 7.9 20.8
Q 6.55 18.2 7.2 20.75 7.85 23.3 7.25 23.9 6.6 24.6 5.95 24.45
L 5.15 24.45
Q 3.7 25 2.65 23.2
L 2.65 22.15 2.75 21.2 2.8 20.9 2.85 19.2
Q 2.4 19.2 2.4 19.35 2.4 20.9 1.55 22 0.65 23.05 -0.55 23.05 -1.5 22.95 -2.15 21.3 -2.1 19.75 -2.35 18.8
L -2.4 18.75 -2.45 18.65
Q -2.45 17.8 -1.85 17.15 -0.85 16 -0.4 15.05 -0.05 14.45 0.2 13.35
L 0.55 11.55 0.9 9.6 0.95 9.35 1.2 7.95 1.35 7.6 1.4 7.45
Q 1.75 6.45 2.15 6.65
L 2.45 6.5
Q 3.4 6.1 3.95 5.25 Z"/>

<path id="Symbol_28_0_Layer0_0_1_STROKES" stroke="#000000" stroke-width="0.05" stroke-linejoin="round" stroke-linecap="round" fill="none" d="
M 10.75 -0.5
L 11.3 0 10.9 0.1
Q 9.25 0 9.3 1.7
L 9.35 2.2 9.35 2.75
Q 9.2 1.45 6.85 0.7
L 6.9 0.15 7.85 -0.55 10.75 -0.5 Z
M 3.5 21.6
Q 2.6 23.25 3.55 24.8
L 5.3 26.9 5.65 27.15 6.5 27.55 7.2 27.65 8.4 26.75 8.05 26.75
Q 6.65 26.6 6.65 25.35
L 6.6 22.3 6.5 21.75 3.5 21.6 Z
M 0.75 22
L 0.25 22.95
Q 0 23.4 0.1 23.9 0.2 24.4 0.8 25.3
L 0.6 25.45
Q -2.15 25.45 -2.15 21.85 -2.15 19.4 -0.55 19.65 1 19.9 1 21.25
L 0.75 22 Z
M 15.1 23.7
L 15.9 23.7 16.8 23.3 16 24.55
Q 15.15 25.4 13.65 25.45 12.15 25.5 10.85 24.25 9.55 23 9.8 21.55 10 20 11.45 19.9 12.9 19.8 13.35 20.75
L 14.2 22.65
Q 14.6 23.55 15.1 23.7 Z"/>

<path id="Symbol_30_0_Layer1_0_1_STROKES" stroke="#000000" stroke-width="0.05" stroke-linejoin="round" stroke-linecap="round" fill="none" d="
M 9.75 5.55
L 9.6 5.4 9.25 4.95 9.1 4.8 7.15 2.15
Q 4.9 -0.95 3.3 -1.45
L -0.25 0.45
Q -0.8 0.95 -0.8 1.45 -0.8 2.85 2.05 5.85
L 7 10.45 12.55 15.25 14.8 17.55
M 9.75 5.55
L 9.75 5.6 14.35 11.05
Q 15.9 12.8 17.45 13
L 17.8 13.05"/>

<path id="Symbol_30_0_Layer0_0_1_STROKES" stroke="#000000" stroke-width="0.05" stroke-linejoin="round" stroke-linecap="round" fill="none" d="
M 6.9 -1
L 6.5 -1.35
Q 5.7 -2.15 5.45 -3.05
M -8 0.75
L -5.9 3
M 6.9 -1
Q 8.4 0.25 11.05 0.5
L 11.2 0.85
M 10.9 1.3
L 10.6 1.9 10.2 3.35 10.2 4.3 10.25 4.85 10.35 5.3
M 10.6 5.8
L 10.85 6.2 11.3 6.9 11.35 6.8 11.9 6.15 12.85 5.1 13.05 4.8 13.2 4.65 13 5.25 12.3 6.75 15.5 6.15 19.1 6.15 15.25 8.1 15.15 8.1 16.2 8.55
Q 17.1 8.95 17.25 9.1
L 14.75 9.55
M 8.3 12.45
L 4.95 11.35
Q 2.15 10.45 0.15 8.75
L 0.1 8.75 -0.6 8.15 -3.95 5 -5.9 3
M 8.3 12.45
L 8.6 12.55 9.75 12.95"/>

<path id="Symbol_30_0_Layer0_0_2_STROKES" stroke="#000000" stroke-width="0.1" stroke-linejoin="round" stroke-linecap="round" fill="none" d="
M 10.6 5.8
L 10.35 5.3
M 12.65 10.05
L 14.75 9.55
M 12.9 14.05
L 12.1 11.7
Q 12.1 11.4 13.5 10.9
L 15.7 10.45 15.8 10.4
Q 14.2 9.7 12.55 10.05
M 12.9 14.05
L 12.95 14.2 12.5 14.1 11.2 13.75 10.15 13.65 9.5 14.35
Q 8.95 15.1 9 15.7 8.65 15.55 8.45 14.1
L 8.3 12.5 8.3 12.45"/>

<path id="Symbol_32_0_Layer1_0_1_STROKES" stroke="#000000" stroke-width="0.05" stroke-linejoin="round" stroke-linecap="round" fill="none" d="
M 20.25 8.05
L 15.85 8.05
M 16.4 9.25
L 14.65 8.9 15.75 11.35
M 13.35 10.2
L 10.9 9.85 8.6 10.05 6.95 10.15 4.95 9.45"/>

<path id="Symbol_32_0_Layer0_0_1_STROKES" stroke="#000000" stroke-width="0.05" stroke-linejoin="round" stroke-linecap="round" fill="none" d="
M -2.65 6
L -1.9 5.3 -1.75 5.2 -1.35 4.95 -1.05 4.75 -0.8 4.6 6.15 0.1 6.75 -0.15
Q 9.6 -1.25 12.35 0.4
L 12.45 0.5 12.45 0.55 12.25 2.2 8.55 7.15 8.4 7.4 7.25 9.1 6.75 9.9 5.5 10.45 5.1 10.6 -2.6 12.8 -4.95 12.65
Q -7.35 12.2 -8.8 10.8
L -7.9 10.7
Q -7.05 10.5 -6.2 9.8
L -5.95 9.6 -3.6 6.85 -2.65 6 -3.4 6.9 -3.9 7.85
M -5.65 11.4
L -5.25 11.75 -4.55 12 -4.15 12 -3.85 12 -3.75 11.95 -2.7 11.65 -1.45 11.25 1.85 9.4 4.65 7.75 7.95 5.05 12.45 0.5
M -0.8 4.6
L -1.35 4.95
M -5.65 11.4
L -5.6 11 -5.05 9.8 -4.45 8.7 -3.9 7.85
M -7.25 11.2
L -6.1 11.65 -4.7 12.05 -4.15 12"/>

<path id="Symbol_34_0_Layer7_0_1_STROKES" stroke="#000000" stroke-width="0.05" stroke-linejoin="round" stroke-linecap="round" fill="none" d="
M 24.3 6.15
L 23.7 7.1"/>

<path id="Symbol_34_0_Layer7_0_2_STROKES" stroke="#000000" stroke-width="0.1" stroke-linejoin="round" stroke-linecap="round" fill="none" d="
M 25.8 -15.3
L 24.8 -20 24.25 -22.15 22.8 -25.2 22.85 -25.2 23.9 -23.75 23.95 -23.65 25.95 -20.45
Q 27.65 -16.45 28.05 -12.1 28.25 -9.9 27.9 -7.8 27.4 -5.5 26.2 -3.3
L 24.75 -1.3 22.55 1.1 21.05 2.3 20.9 2.4 23.55 0.9
Q 26.35 -0.75 27.55 -1.8
L 28.7 -2.65 26.35 -0.1 24.25 2.2 22.5 3.8 22.15 4.05 22.2 4.1 23.85 3.75
Q 26.55 2.8 28.6 1.2
L 31.45 -1.05
Q 29.95 1.55 27.6 3.65
L 26.35 4.7 24.3 6.15
M 23.7 7.1
L 23.5 8.05 24.4 9
Q 25.55 9.65 27.55 9.4
L 34.85 8.85
Q 32.1 11 26.3 10.8
L 29.45 11.75
Q 26.3 11.9 23.5 10.75
M 11.9 3.65
Q 14 2.7 15.55 0.35
L 15.85 0 16.65 -1.1
Q 18.25 -3.5 18.4 -6.35
L 18.4 -7.65 18.2 -8.9 17.65 -10.1
Q 15.7 -14.15 11.15 -15.5
L 5.35 -16.2 1.65 -15.75 -2.35 -14.7 -3.45 -14.25 -3.8 -14.1 -4.7 -13.65
Q -7.65 -11.85 -10.05 -9.35
L -10.4 -8.95
Q -12.85 -6.4 -14.2 -3.2 -15.3 -0.6 -15.85 2.15
L -16.3 5.05 -16.35 1.9
Q -16.35 -1.5 -15.6 -4.7
L -15.15 -6.6 -15.05 -6.95
Q -13.9 -11.25 -11.05 -14.65
L -9.75 -16.05
Q -7.1 -18.85 -3.7 -20.7
L -1.5 -21.75
Q 1.7 -23.05 4.4 -23.55
L 7.8 -24 9.6 -23.95 12.5 -23.95 15.75 -23.8 16.8 -23.6 18.2 -23.3 20.55 -22.3
Q 22 -21.7 22.1 -20.55 21.95 -19.45 21.3 -18.85
L 19.55 -17.95 19 -15.6
Q 18.8 -14 19.65 -12.25 20.5 -10.6 20.65 -8.65
L 20.7 -8.4
Q 21 -6.1 20.65 -3.9
L 20.3 -2.2 19.25 0.65 17.8 3.2 17.95 3.15 18.5 2.7 19.95 1.4 20.75 0.65
Q 24.3 -3.05 25.55 -8 26.15 -10.25 26.05 -12.5
L 25.8 -15.3
M 20.7 2.5
L 20.9 2.4"/>

<path id="Symbol_34_0_Layer6_0_1_STROKES" stroke="#000000" stroke-width="0.05" stroke-linejoin="round" stroke-linecap="round" fill="none" d="
M 33.25 -1.95
L 33.1 -1.5 32.35 0.4 31.7 1.9
Q 29.85 5.65 27.6 7.1
L 24.7 9.05 23.7 9.65 26.1 8.4 27.9 7.45
Q 28.6 7.55 25 9.95
L 24.25 10.45 24.4 10.8 25 12.35 26.1 15.6 26.35 16.6 26.4 16.9 26.35 18.75
M 6.05 33.65
L 5.8 33.75 3.7 34.5 1 35.6 0.1 36 -0.25 36.2
Q -2.45 37.35 -4.3 38.9 -6.4 40.6 -7.2 43.25
L -7.65 45.1 -7.55 46 -7.6 45.95 -7.8 45.6 -8.05 45.15 -8.7 44.1 -9.1 43.4 -9.8 42.05 -10.35 40.65 -10.65 39.2 -10.7 37.6 -10.45 35.75 -9.75 33.75 -9.6 33.5 -8.6 31.45 -7.15 28.95 -6.35 27.7 -5.85 26.85 -5.6 26.6 -5.55 26.6 -5.55 26.55 -5.5 26.5 -5.1 25.7 -5 23.5 -5 23.25 -5 23.2 -5 22.55 -5.05 21.8 -5.05 21.35 -5.15 20.3 -5.2 19.8 -5.75 17.9
Q -6.25 15.15 -5.3 11.45
L -5.1 10.8 -4.65 9.5 -3.15 6
Q -2.6 4.8 -1.7 3.95 -0.3 2.45 1.3 1.2
L 9.15 -5.05 8.3 -2.5
Q 7.1 0.75 5.35 3.25 6.7 2.25 7.25 2.25
L 5.65 3.95 4.4 4.95
Q 5.7 4.05 8.4 3.4
L 10.1 3.1 13.9 3.4 17.25 4.4
M 24.25 10.45
L 22.45 11.75 18.25 14.15
Q 15.9 15.5 14.45 16.4
L 13.7 16.9 12.1 18.15
M 1 7.65
Q -0.7 9.25 -2.25 11.5
M 4.4 4.95
L 3.8 5.35 3.45 5.6
M 3.8 5.35
L 3.55 5.5 3.45 5.6 1.8 6.85 1.5 7.15 1 7.65
M 3.9 4.4
L 5.35 3.25
M 6.75 31.85
L 7.1 31.8 7.2 31.8 8.05 31.65 9.3 30.8 10.6 29.85
Q 11 29.85 11 30.3
L 11 30.5
M 1.95 31.15
L 5.2 31.75 6.75 31.85
M -2.7 28.35
Q -1.45 30 0.4 30.8
L 1.95 31.15
M -2.7 28.35
L -3.1 27.75 -3.8 26.6
M -5.55 26.55
L -4.95 26.25 -4.3 26.1 -4.05 26.2 -4 26.25 -3.9 26.4 -3.8 26.6
M -5.55 26.6
L -5.5 26.5"/>

<path id="Symbol_34_0_Layer6_0_2_STROKES" stroke="#000000" stroke-width="0.1" stroke-linejoin="round" stroke-linecap="round" fill="none" d="
M 10.5 13.75
L 10 14.05 9.8 14.25
M 33.25 -1.95
L 30.9 -1 17.25 4.4
M 10.5 13.75
L 11.25 12.6 11.75 11.85 14.3 5.9
Q 14.65 5.5 15.65 5.05
L 17.25 4.4"/>

<path id="Symbol_34_0_Layer5_0_1_STROKES" stroke="#000000" stroke-width="0.1" stroke-linejoin="round" stroke-linecap="round" fill="none" d="
M 0.3 13.25
L 0.15 13.2 -0.95 13
Q -2.2 13 -3.35 13.7 -4.45 14.6 -4.75 16.35 -5.05 18.05 -3.9 18.9 -2.85 19.65 -2.15 19.25
L -2.15 19.4 -2.25 19.65 -2.45 20.15
Q -2.9 20.95 -3.7 21.5
M 0.3 13.25
L 1.35 14.05 1.85 15.1 1.95 16.05 1.9 16.5
Q 1.6 18.9 -0.4 20.8
M -0.45 20.85
Q -2.9 22.65 -5 22.3
L -4.55 22.05 -3.85 21.6 -3.7 21.5
M -0.45 20.85
L -0.45 20.8 -0.4 20.8"/>

<path id="Symbol_34_0_Layer5_0_2_STROKES" stroke="#000000" stroke-width="0.05" stroke-linejoin="round" stroke-linecap="round" fill="none" d="
M -0.4 20.8
L -0.45 20.85"/>

<path id="Symbol_34_0_Layer3_0_1_STROKES" stroke="#000000" stroke-width="0.05" stroke-linejoin="round" stroke-linecap="round" fill="none" d="
M 7.35 20.55
L 9.25 19.65 12.1 18.15 8.85 20.9
Q 9.85 22.65 9.3 24.25 8.75 25.9 6.1 25.8 4 25.7 2.65 26.85
L 2.7 26.65 3.2 24.2
Q 3.8 21.5 5.2 21.2
L 7.35 20.55 Z"/>

<path id="Symbol_34_0_Layer2_0_1_STROKES" stroke="#000000" stroke-width="0.05" stroke-linejoin="round" stroke-linecap="round" fill="none" d="
M 8.55 26.4
Q 7.7 27.3 6.3 27.3 4.95 27.3 4 26.4 3.15 25.55 3.15 24.2 3.15 23.05 4 22.15 4.95 21.3 6.3 21.3 7.7 21.3 8.55 22.15 9.55 23.05 9.55 24.2 9.55 25.55 8.55 26.4 Z"/>

<path id="Symbol_37_0_Layer0_0_1_STROKES" stroke="#000000" stroke-width="0.05" stroke-linejoin="round" stroke-linecap="round" fill="none" d="
M 67.35 -69.7
L 68.15 -70.35 68.65 -70.8 69 -71.15 71.8 -74.15 74.55 -77.4 75.5 -78.4
Q 77.2 -80.8 78.6 -83.5
L 78.75 -83.8
Q 80.2 -86.7 76.85 -82.55
L 69.95 -75.1 65.95 -71.45 61.55 -68.35 58.95 -66.6 54.95 -63.95 49.45 -60.15
Q 44.75 -56.75 41 -54.9 37.25 -53.05 32.3 -49.85
L 31.3 -49.1 28.25 -46.4
Q 26.75 -44.95 26.95 -46.9 27.05 -48.15 28.05 -50.75
L 28.95 -53
M 16.15 -28.9
L 16.1 -28.8 15.5 -27.95 14.9 -27.3 14.65 -27.1 1.6 -16.65 1.3 -16.65
M -9.45 1.5
L -9.3 1.8 -9.2 0.75 -9.1 -0.15
M 78.6 -83.5
Q 79.25 -81.3 78.85 -78.3 77.05 -68.55 70.45 -61.15
L 70.4 -61.1 70.2 -60.85 70.2 -60.8 68.7 -59.2 68.3 -58.8 67.55 -58.1 67.45 -57.95 63.95 -54.6 63.45 -54.1 63.5 -54.1 75.4 -60.55 87.8 -68.15
Q 90.15 -69.65 89.2 -65.3
L 88.4 -62.4 88.25 -62 88.1 -61.55
Q 86.35 -56.25 82.85 -52 78.8 -47.05 73.75 -43.25
L 76.25 -43.65 77.55 -43.9 86.5 -45.55 87.7 -45.55 87.7 -44.55
Q 85.75 -42.3 80.3 -39.5 77.05 -37.85 74.1 -36.95 76.3 -35.9 80.2 -35.2
L 80.8 -35.1 87.55 -34.4
Q 97.05 -33.75 94.5 -30.75
L 94.05 -30.25 91.3 -27.05
Q 88.85 -24.2 81.7 -21.2 75.35 -18.6 71.1 -18.65
L 70.1 -18.7 67.55 -18.7 72.55 -16 70.95 -15.95
Q 66.35 -15.85 61.75 -17.05
L 64.9 -14.5 66.95 -12.95 68 -12.15
Q 71.95 -9.25 76.05 -6.65
L 76.9 -5.8 77.15 -5.1
Q 72.55 -1.1 66.4 -1.95 60.65 -2.4 55.55 -4.75
L 54.75 -5.15
Q 51.75 -6.65 49 -8.6
L 49.2 -7.9 49.2 -7.05 48.3 -6.9 48.1 -6.9
Q 47.35 -6.95 46.3 -7.3
L 47.1 -6
Q 50.7 0.1 50.7 0.8 50.7 1.8 50.3 2.5 49.65 3.55 48.25 3.55 44.25 3.55 38.65 -2.15
L 36.9 -4.05 35.6 -5.65 36.55 -1.8 37.6 1.85 37.6 3.95 35.95 3.3
Q 33.05 1.8 30.25 -1.85
L 29.2 -3.35 29.2 -2.75 28.95 0.7 28.75 1.65 27.95 3.95 27.7 3.95 25.55 0.7 25.2 0.05 24.1 -1 21.65 -1.15 21.2 -1.15 18 -0.95 14.35 -0.25 13.2 0.1 12.2 0.45 11.1 0.95
Q 9.95 1.5 9.15 2.2
L 8.65 2.65 7.7 4.25 7.7 5.2
M 61.8 -53.25
L 58.2 -51.35 57.65 -51.3
M 26.5 -10.65
L 26.45 -11.7 26.45 -11.75 26.45 -12.15 26.35 -12.85
M 54.95 -61.25
L 57.1 -62.65 61.25 -65.25 62.2 -65.9
Q 62.4 -66 63 -66.4
L 63.35 -66.65 66.95 -69.4 67.05 -69.45 67.35 -69.7
M -6.6 0.25
L -4 -2.05
Q -0.3 -4.7 -0.4 -7.75 -0.45 -8.45 0.2 -9.35
L 1.55 -10.85
Q 3.45 -12.7 5.95 -14
L 7.8 -14.8 7.85 -14.9
Q 9.45 -16.3 13.75 -19.7 17.5 -23.05 20.2 -24.95
L 21 -25.5 21.25 -25.7 21.6 -25.95 22.55 -26.5
Q 23.1 -29.25 24.1 -31.7
L 24.5 -32.65
Q 27.55 -39.35 34.75 -46.25 36.95 -48.35 43.05 -52.65
L 52.5 -59.5 54.95 -61.25
M 71.6 -42.6
L 72.3 -42.8 73.75 -43.25
M 63.5 -54.1
L 61.8 -53.25
M 28.95 -53
L 29 -53.05 29.55 -54.25 24.4 -49.1
Q 19.6 -44.25 18 -34.35
L 17.65 -32.35
Q 17.15 -30.5 16.15 -28.9
M 15.9 -4.25
L 18 -0.95
M 7.65 -3.45
L 14.35 -0.25
M 30.85 -13.6
L 31.25 -13 32.55 -10.05 32.8 -9.55 33.1 -9
Q 33.8 -7.7 34.45 -6.95
L 34.45 -7 34.75 -6.7 35.2 -6.15 35.35 -5.95 35.6 -5.65
M 26.6 -9.95
L 26.5 -10.65
M 29.2 -3.35
Q 27.8 -5.55 27.1 -7.75
L 26.6 -9.95
M 23.35 -10.05
L 23.3 -9.65 23.1 -7.55 23.1 -7.05
Q 23.25 -4.05 24.75 -0.8
L 25.2 0.05
M 20.6 -6.8
L 21 -5.5
Q 21.45 -4.4 22.55 -2.9
L 24.1 -1 24.2 -1 24.25 -0.85
M 34.45 -6.95
L 34.75 -6.7
M 15.65 -5.95
L 21.2 -1.15
M 67.85 -37.2
L 68.25 -37.15 74.1 -36.95
M 71.35 -42.5
L 71.6 -42.6
M 62.85 -38.75
L 64 -38.3 64.05 -38.25 65.45 -37.8 66.85 -37.45 67 -37.4 67.85 -37.2
M 65.8 -19.1
L 67.55 -18.7
M 54.3 -42.15
L 59.55 -41.55 62.3 -41.45 62.65 -41.45 68.9 -42 69.9 -42.2 71.35 -42.5
M 61.75 -17.05
L 57.95 -18.35 56.15 -19.15 55.15 -19.75
M 49 -8.6
L 47.7 -9.55 47.4 -9.75 40.6 -14.35
M 46.3 -7.3
L 44.4 -8.1
Q 42 -9.25 41.1 -10.15
M 48.25 -24.5
L 57.55 -21.1 65.8 -19.1
M 7.55 4.6
L 7.7 4.25
M 8.4 -0.95
L 11.1 0.95
M -9.75 -5.65
L -9.65 -6.45
Q -8.65 -12.75 -3.05 -15.6 -0.7 -16.85 1.3 -16.65
M -6.6 0.25
Q -6.55 2.25 -6.65 3.45
L -6.9 4.65 -7.65 2.7 -7.7 2.8 -7.7 3.1
Q -8.15 5.3 -9.8 6.85
L -9.8 6.75 -9.3 1.8
M -6.6 0.25
L -6.7 -0.95"/>
</defs>

<g transform="matrix( 1, 0, 0, 1, 600,440) ">
<g transform="matrix( 1.91876220703125, 0, 0, 0.4789276123046875, -167.95,-22.3) ">
<g transform="matrix( 1, 0, 0, 1, 0,0) ">
<use xlink:href="#Symbol_4_0_Layer0_0_FILL"/>
</g>
</g>

<g transform="matrix( 1.04266357421875, 0, 0, 1.04266357421875, -81,-175.3) ">
<g transform="matrix( 1, 0, 0, 1, 0,0) ">
<g transform="matrix( 1, 0, 0, 1, 0,0) ">
<use xlink:href="#Symbol_5_0_Layer1_0_FILL"/>

<use xlink:href="#Symbol_5_0_Layer1_0_1_STROKES"/>
</g>

<g transform="matrix( 1, 0, 0, 1, 0,0) ">
<use xlink:href="#Symbol_5_0_Layer0_0_FILL"/>

<use xlink:href="#Symbol_5_0_Layer0_0_1_STROKES"/>
</g>
</g>
</g>

<g transform="matrix( 1.04266357421875, 0, 0, 1.04266357421875, -91.9,-184.85) ">
<g transform="matrix( 1, 0, 0, 1, 0,0) ">
<g transform="matrix( 1, 0, 0, 1, 0,0) ">
<use xlink:href="#Symbol_7_0_Layer1_0_FILL"/>

<use xlink:href="#Symbol_7_0_Layer1_0_1_STROKES"/>
</g>

<g transform="matrix( 1, 0, 0, 1, 0,0) ">
<use xlink:href="#Symbol_7_0_Layer0_0_FILL"/>

<use xlink:href="#Symbol_7_0_Layer0_0_1_STROKES"/>

<use xlink:href="#Symbol_7_0_Layer0_0_2_STROKES"/>
</g>
</g>
</g>

<g transform="matrix( 1.27703857421875, 0, 0, 1.27703857421875, -52.85,-197.2) ">
<g transform="matrix( 0.929840087890625, -0.4050140380859375, 0.36639404296875, 0.9142913818359375, -34.3,68.4) ">
<g transform="matrix( 1, 0, 0, 1, 0,0) ">
<g transform="matrix( 1, 0, 0, 1, 0,0) ">
<use xlink:href="#Symbol_9_0_Layer1_0_FILL"/>

<use xlink:href="#Symbol_9_0_Layer1_0_1_STROKES"/>
</g>

<g transform="matrix( 1, 0, 0, 1, 0,0) ">
<use xlink:href="#Symbol_9_0_Layer0_0_FILL"/>
</g>
</g>
</g>

<g transform="matrix( 1.0017547607421875, -0.057861328125, 0.018341064453125, 0.99896240234375, 7.9,40.85) ">
<g transform="matrix( 1, 0, 0, 1, 0,0) ">
<g transform="matrix( 1, 0, 0, 1, 0,0) ">
<use xlink:href="#Symbol_11_0_Layer1_0_FILL"/>

<use xlink:href="#Symbol_11_0_Layer1_0_1_STROKES"/>
</g>

<g transform="matrix( 1, 0, 0, 1, 0,0) ">
<use xlink:href="#Symbol_11_0_Layer0_0_FILL"/>

<use xlink:href="#Symbol_11_0_Layer0_0_1_STROKES"/>
</g>
</g>
</g>

<g transform="matrix( 0.6110687255859375, -0.77886962890625, 0.786712646484375, 0.62744140625, -0.15,96.1) ">
<g transform="matrix( 1, 0, 0, 1, 0,0) ">
<g transform="matrix( 1, 0, 0, 1, 0,0) ">
<use xlink:href="#Symbol_9_0_Layer1_0_FILL"/>

<use xlink:href="#Symbol_9_0_Layer1_0_1_STROKES"/>
</g>

<g transform="matrix( 1, 0, 0, 1, 0,0) ">
<use xlink:href="#Symbol_9_0_Layer0_0_FILL"/>
</g>
</g>
</g>

<g transform="matrix( 0.9990081787109375, -0.0094757080078125, 0.0269317626953125, 1.00091552734375, 19.75,43.7) ">
<g transform="matrix( 1, 0, 0, 1, 0,0) ">
<g transform="matrix( 1, 0, 0, 1, 0,0) ">
<use xlink:href="#Symbol_13_0_Layer1_0_FILL"/>

<use xlink:href="#Symbol_13_0_Layer1_0_1_STROKES"/>
</g>

<g transform="matrix( 1, 0, 0, 1, 0,0) ">
<use xlink:href="#Symbol_13_0_Layer0_0_FILL"/>

<use xlink:href="#Symbol_13_0_Layer0_0_1_STROKES"/>
</g>
</g>
</g>

<g transform="matrix( -0.0829925537109375, -0.99725341796875, 0.99639892578125, -0.069915771484375, 47.95,102.8) ">
<g transform="matrix( 1, 0, 0, 1, 0,0) ">
<g transform="matrix( 1, 0, 0, 1, 0,0) ">
<use xlink:href="#Symbol_9_0_Layer1_0_FILL"/>

<use xlink:href="#Symbol_9_0_Layer1_0_1_STROKES"/>
</g>

<g transform="matrix( 1, 0, 0, 1, 0,0) ">
<use xlink:href="#Symbol_9_0_Layer0_0_FILL"/>
</g>
</g>
</g>

<g transform="matrix( 0.99981689453125, -0.00946044921875, 0.0224609375, 0.99993896484375, 31.1,37.95) ">
<g transform="matrix( 1, 0, 0, 1, 0,0) ">
<g transform="matrix( 1, 0, 0, 1, 0,0) ">
<use xlink:href="#Symbol_15_0_Layer1_0_FILL"/>

<use xlink:href="#Symbol_15_0_Layer1_0_1_STROKES"/>
</g>

<g transform="matrix( 1, 0, 0, 1, 0,0) ">
<use xlink:href="#Symbol_15_0_Layer0_0_FILL"/>

<use xlink:href="#Symbol_15_0_Layer0_0_1_STROKES"/>
</g>
</g>
</g>

<g transform="matrix( -0.57147216796875, -0.8127899169921875, 0.817718505859375, -0.5687255859375, 80,80.6) ">
<g transform="matrix( 1, 0, 0, 1, 0,0) ">
<g transform="matrix( 1, 0, 0, 1, 0,0) ">
<use xlink:href="#Symbol_9_0_Layer1_0_FILL"/>

<use xlink:href="#Symbol_9_0_Layer1_0_1_STROKES"/>
</g>

<g transform="matrix( 1, 0, 0, 1, 0,0) ">
<use xlink:href="#Symbol_9_0_Layer0_0_FILL"/>
</g>
</g>
</g>

<g transform="matrix( 1.00018310546875, -0.0263519287109375, 0.0264129638671875, 0.9922943115234375, 8.2,3.5) ">
<g transform="matrix( 1, 0, 0, 1, 0,0) ">
<g transform="matrix( 1, 0, 0, 1, 0,0) ">
<use xlink:href="#Symbol_17_0_Layer1_0_FILL"/>

<use xlink:href="#Symbol_17_0_Layer1_0_1_STROKES"/>
</g>

<g transform="matrix( 1, 0, 0, 1, 0,0) ">
<use xlink:href="#Symbol_17_0_Layer0_0_FILL"/>

<use xlink:href="#Symbol_17_0_Layer0_0_1_STROKES"/>
</g>
</g>
</g>

<g transform="matrix( 1, 0, 0, 1, 0,0) ">
<g transform="matrix( 1, 0, 0, 1, 0,0) ">
<use xlink:href="#Symbol_19_0_Layer0_0_FILL"/>

<use xlink:href="#Symbol_19_0_Layer0_0_1_STROKES"/>

<use xlink:href="#Symbol_19_0_Layer0_0_2_STROKES"/>
</g>
</g>
</g>

<g transform="matrix( 1.266845703125, -0.1610107421875, 0.1610107421875, 1.266845703125, -96.1,-225.3) ">
<g transform="matrix( 1, 0, 0, 1, 0,-0.3) ">
<g transform="matrix( 1, 0, 0, 1, 0,0) ">
<use xlink:href="#Symbol_22_0_Layer0_0_FILL"/>

<use xlink:href="#Symbol_22_0_Layer0_0_1_STROKES"/>
</g>
</g>
</g>

<g transform="matrix( 1.27703857421875, 0, 0, 1.27703857421875, -127.4,-231.85) ">
<g transform="matrix( 1, 0, 0, 1, 0,0) ">
<use xlink:href="#Symbol_27_0_Layer1_0_FILL"/>

<use xlink:href="#Symbol_27_0_Layer1_0_1_STROKES"/>

<use xlink:href="#Symbol_27_0_Layer1_0_2_STROKES"/>
</g>

<g transform="matrix( 0.260772705078125, 0.0679168701171875, -0.0679168701171875, 0.260772705078125, 2,-10) ">
<g transform="matrix( 0.558929443359375, 3.9034881591796875, 3.2999267578125, -1.10308837890625, 14.35,20.2) ">
<g transform="matrix( 1, 0, 0, 1, 0,0) ">
<g transform="matrix( 1, 0, 0, 1, 0,0) ">
<use xlink:href="#Symbol_24_0_Layer4_0_FILL"/>

<use xlink:href="#Symbol_24_0_Layer4_0_1_STROKES"/>
</g>

<g transform="matrix( 1, 0, 0, 1, 0,0) ">
<use xlink:href="#Symbol_24_0_Layer3_0_FILL"/>

<use xlink:href="#Symbol_24_0_Layer3_0_1_STROKES"/>
</g>

<g transform="matrix( 1, 0, 0, 1, 0,0) ">
<use xlink:href="#Symbol_24_0_Layer2_0_FILL"/>

<use xlink:href="#Symbol_24_0_Layer2_0_1_STROKES"/>
</g>

<g transform="matrix( 1, 0, 0, 1, 0,0) ">
<use xlink:href="#Symbol_24_0_Layer1_0_FILL"/>

<use xlink:href="#Symbol_24_0_Layer1_0_1_STROKES"/>
</g>

<g transform="matrix( 1, 0, 0, 1, 0,0) ">
<use xlink:href="#Symbol_24_0_Layer0_0_FILL"/>

<use xlink:href="#Symbol_24_0_Layer0_0_1_STROKES"/>
</g>
</g>
</g>
</g>
</g>

<g transform="matrix( 1.04266357421875, 0, 0, 1.04266357421875, -55.95,-174.9) ">
<g transform="matrix( 1, 0, 0, 1, 0,0) ">
<g transform="matrix( 1, 0, 0, 1, 0,0) ">
<use xlink:href="#Symbol_28_0_Layer1_0_FILL"/>

<use xlink:href="#Symbol_28_0_Layer1_0_1_STROKES"/>
</g>

<g transform="matrix( 1, 0, 0, 1, 0,0) ">
<use xlink:href="#Symbol_28_0_Layer0_0_FILL"/>

<use xlink:href="#Symbol_28_0_Layer0_0_1_STROKES"/>
</g>
</g>
</g>

<g transform="matrix( 1.04266357421875, 0, 0, 1.04266357421875, -70.2,-182.25) ">
<g transform="matrix( 1, 0, 0, 1, 0,0) ">
<g transform="matrix( 1, 0, 0, 1, 0,0) ">
<use xlink:href="#Symbol_30_0_Layer1_0_FILL"/>

<use xlink:href="#Symbol_30_0_Layer1_0_1_STROKES"/>
</g>

<g transform="matrix( 1, 0, 0, 1, 0,0) ">
<use xlink:href="#Symbol_30_0_Layer0_0_FILL"/>

<use xlink:href="#Symbol_30_0_Layer0_0_1_STROKES"/>

<use xlink:href="#Symbol_30_0_Layer0_0_2_STROKES"/>
</g>
</g>
</g>

<g transform="matrix( 1.272705078125, -0.0010528564453125, 0.0010528564453125, 1.272705078125, -143.75,-219.35) ">
<g transform="matrix( 1, 0, 0, 1, 0,0) ">
<g transform="matrix( 1, 0, 0, 1, 0,0) ">
<use xlink:href="#Symbol_32_0_Layer1_0_FILL"/>

<use xlink:href="#Symbol_32_0_Layer1_0_1_STROKES"/>
</g>

<g transform="matrix( 1, 0, 0, 1, 0,0) ">
<use xlink:href="#Symbol_32_0_Layer0_0_FILL"/>

<use xlink:href="#Symbol_32_0_Layer0_0_1_STROKES"/>
</g>
</g>
</g>

<g transform="matrix( 1.27703857421875, 0, 0, 1.27703857421875, -146.55,-250.85) ">
<g transform="matrix( 1, 0, 0, 1, 0,0) ">
<g transform="matrix( 1, 0, 0, 1, 0,0) ">
<use xlink:href="#Symbol_34_0_Layer7_0_FILL"/>

<use xlink:href="#Symbol_34_0_Layer7_0_1_STROKES"/>

<use xlink:href="#Symbol_34_0_Layer7_0_2_STROKES"/>
</g>

<g transform="matrix( 1, 0, 0, 1, 0,0) ">
<use xlink:href="#Symbol_34_0_Layer6_0_FILL"/>

<use xlink:href="#Symbol_34_0_Layer6_0_1_STROKES"/>

<use xlink:href="#Symbol_34_0_Layer6_0_2_STROKES"/>
</g>

<g transform="matrix( 1, 0, 0, 1, 0,0) ">
<use xlink:href="#Symbol_34_0_Layer5_0_FILL"/>

<use xlink:href="#Symbol_34_0_Layer5_0_1_STROKES"/>

<use xlink:href="#Symbol_34_0_Layer5_0_2_STROKES"/>
</g>

<g transform="matrix( 1, 0, 0, 1, 0,0) ">
<use xlink:href="#Symbol_34_0_Layer4_0_FILL"/>
</g>

<g transform="matrix( 1, 0, 0, 1, 0,0) ">
<use xlink:href="#Symbol_34_0_Layer3_0_FILL"/>

<use xlink:href="#Symbol_34_0_Layer3_0_1_STROKES"/>
</g>

<g transform="matrix( 1, 0, 0, 1, 0,0) ">
<use xlink:href="#Symbol_34_0_Layer2_0_FILL"/>

<use xlink:href="#Symbol_34_0_Layer2_0_1_STROKES"/>
</g>

<g transform="matrix( 1, 0, 0, 1, 0,0) ">
<use xlink:href="#Symbol_34_0_Layer1_0_FILL"/>
</g>

<g transform="matrix( 1, 0, 0, 1, 0,0) ">
<use xlink:href="#Symbol_34_0_Layer0_0_FILL"/>
</g>
</g>
</g>

<g transform="matrix( 1.27703857421875, 0, 0, 1.27703857421875, -87.45,-226.7) ">
<g transform="matrix( 1, 0, 0, 1, 0,0) ">
<g transform="matrix( 1, 0, 0, 1, 0,0) ">
<use xlink:href="#Symbol_37_0_Layer0_0_FILL"/>

<use xlink:href="#Symbol_37_0_Layer0_0_1_STROKES"/>
</g>
</g>
</g>

<g id="hitAreaMc" transform="matrix( 2.8375244140625, 0, 0, 2.7309417724609375, -104.25,-276.1) ">
<g transform="matrix( 1, 0, 0, 1, 0,0) ">
<use xlink:href="#Symbol_95_0_Layer0_0_FILL"/>
</g>
</g>
</g>
</svg>
